<?xml version="1.0" standalone="no"?>
<!DOCTYPE svg PUBLIC "-//W3C//DTD SVG 20010904//EN"
 "http://www.w3.org/TR/2001/REC-SVG-20010904/DTD/svg10.dtd">
<svg version="1.0" xmlns="http://www.w3.org/2000/svg"
 width="841.000000pt" height="841.000000pt" viewBox="0 0 841.000000 841.000000"
 preserveAspectRatio="xMidYMid meet">
<metadata>
Created by potrace 1.14, written by Peter Selinger 2001-2017
</metadata>
<g transform="translate(0.000000,841.000000) scale(0.100000,-0.100000)"
fill="#000000" stroke="none">
<path d="M4717 7694 c-2 -2 -53 -6 -113 -9 -60 -3 -125 -7 -144 -10 -19 -3
-66 -7 -103 -10 -37 -4 -76 -8 -85 -10 -10 -2 -45 -6 -77 -10 -33 -4 -97 -13
-141 -20 -45 -8 -103 -17 -130 -21 -27 -3 -52 -8 -55 -10 -4 -2 -26 -6 -49 -9
-24 -3 -46 -8 -50 -10 -4 -2 -22 -7 -41 -10 -19 -3 -54 -11 -79 -16 -25 -6
-52 -12 -60 -14 -44 -9 -266 -70 -340 -92 -47 -15 -89 -28 -95 -29 -22 -5
-236 -84 -330 -122 -167 -67 -328 -142 -333 -154 -2 -5 -10 -8 -18 -8 -13 0
-52 -18 -64 -30 -3 -3 -23 -14 -45 -25 -99 -49 -434 -259 -460 -289 -5 -6 -27
-22 -47 -36 -21 -14 -38 -28 -38 -32 0 -5 -5 -8 -11 -8 -6 0 -16 -6 -24 -12
-7 -7 -34 -31 -61 -53 -26 -22 -60 -52 -76 -67 -16 -16 -31 -28 -33 -28 -7 0
-217 -214 -260 -265 -22 -27 -45 -53 -50 -59 -26 -27 -136 -178 -180 -246 -26
-41 -55 -86 -65 -100 -16 -24 -134 -264 -150 -305 -22 -56 -35 -91 -36 -95 0
-3 -4 -12 -7 -20 -8 -18 -55 -183 -62 -214 -2 -11 -6 -30 -8 -41 -10 -44 -28
-177 -33 -237 -14 -188 -2 -341 40 -534 19 -90 99 -291 122 -310 8 -6 14 -16
14 -23 0 -16 95 -145 150 -204 51 -56 181 -159 255 -203 136 -82 345 -151 520
-172 79 -9 357 -9 420 1 172 27 302 66 434 129 83 41 198 113 252 160 15 13
38 32 51 43 109 92 240 280 296 425 57 148 77 339 43 415 -37 84 -84 92 -175
30 -188 -129 -424 -207 -626 -206 -132 0 -208 15 -301 61 -261 128 -367 449
-288 875 13 69 63 231 84 272 8 15 15 33 15 39 0 5 28 59 63 120 83 144 90
156 102 170 6 6 21 26 35 44 98 133 236 274 383 392 56 46 104 86 105 91 2 4
9 7 15 7 6 0 20 8 31 19 57 50 429 261 462 261 8 0 14 5 14 10 0 6 8 10 18 10
10 0 22 4 27 8 15 13 258 109 291 115 11 2 28 7 39 11 59 22 72 27 90 31 11 2
65 16 120 31 118 30 112 29 240 55 55 11 116 22 135 24 19 2 35 4 35 5 0 3 34
7 100 14 33 3 71 8 85 10 108 19 622 27 785 12 44 -4 100 -9 125 -11 25 -2 56
-6 70 -9 14 -3 47 -7 75 -11 27 -3 57 -7 65 -9 8 -3 33 -7 55 -11 22 -3 87
-17 144 -31 57 -14 108 -27 115 -28 39 -7 229 -77 328 -122 108 -48 293 -151
321 -178 7 -7 32 -26 57 -43 54 -37 199 -178 256 -248 93 -116 179 -270 229
-415 18 -52 26 -79 42 -150 12 -55 30 -187 28 -212 0 -16 1 -28 4 -28 9 0 -2
-260 -13 -315 -2 -11 -7 -40 -11 -65 -12 -71 -13 -76 -35 -158 -11 -42 -24
-86 -29 -97 -5 -11 -20 -47 -33 -80 -80 -205 -255 -447 -444 -615 -64 -57
-172 -140 -182 -140 -6 0 -12 -4 -14 -8 -4 -10 -194 -128 -223 -138 -11 -4
-31 -15 -45 -24 -30 -20 -294 -131 -365 -152 -122 -38 -191 -58 -210 -62 -11
-1 -27 -6 -35 -9 -15 -5 -92 -23 -140 -32 -14 -3 -47 -9 -75 -15 -46 -9 -78
-14 -145 -25 -14 -2 -52 -7 -85 -11 -33 -3 -69 -8 -80 -10 -17 -3 -141 -13
-215 -18 -18 -1 -24 3 -21 14 2 8 23 78 46 155 24 77 73 244 110 370 36 127
79 275 96 330 16 55 31 109 34 120 2 11 8 34 13 50 6 17 33 104 60 195 99 323
188 580 261 755 5 11 17 40 27 65 10 25 22 48 27 51 5 3 8 9 8 13 -1 3 0 8 0
11 1 3 2 8 3 13 5 20 108 222 117 227 5 4 9 15 9 25 0 10 4 20 9 22 5 2 21 27
37 57 52 97 119 200 199 306 85 113 95 130 95 169 0 28 -7 40 -32 59 -18 14
-46 28 -63 32 -55 15 -227 14 -300 -1 -38 -8 -79 -16 -90 -18 -11 -2 -21 -5
-22 -6 -2 -1 -6 -3 -10 -4 -24 -5 -125 -48 -159 -66 -90 -51 -132 -76 -176
-107 -26 -18 -52 -33 -57 -33 -5 0 -11 -3 -13 -7 -1 -5 -46 -43 -98 -85 -129
-104 -278 -252 -361 -359 -19 -24 -36 -46 -39 -49 -15 -13 -102 -133 -146
-200 -27 -41 -52 -76 -56 -78 -5 -2 -8 -8 -8 -13 0 -5 -15 -33 -34 -62 -40
-62 -67 -110 -104 -181 -14 -28 -30 -57 -35 -64 -35 -45 -289 -618 -327 -737
-7 -22 -15 -44 -19 -50 -3 -5 -6 -14 -8 -20 -1 -5 -16 -48 -33 -95 -18 -47
-42 -114 -55 -150 -25 -69 -146 -437 -150 -455 -1 -5 -5 -17 -8 -25 -3 -8 -15
-44 -26 -80 -10 -36 -45 -146 -76 -245 -31 -99 -58 -187 -60 -195 -1 -8 -16
-55 -33 -105 -16 -49 -53 -160 -81 -245 -70 -214 -116 -349 -131 -385 -7 -16
-14 -35 -16 -42 -5 -27 -120 -305 -166 -401 -26 -56 -48 -106 -48 -111 0 -5
-7 -14 -15 -21 -8 -7 -15 -21 -15 -31 0 -11 -4 -19 -9 -19 -5 0 -13 -10 -17
-22 -6 -21 -102 -187 -114 -198 -3 -3 -22 -29 -42 -59 -199 -290 -469 -467
-758 -498 -240 -25 -425 30 -561 168 -84 85 -127 185 -132 304 -8 185 51 322
203 469 82 79 89 93 85 160 -4 52 -57 174 -95 216 -12 14 -32 36 -44 50 -34
41 -126 109 -186 140 -170 86 -334 102 -540 54 -69 -16 -270 -109 -270 -125 0
-5 -4 -9 -10 -9 -24 0 -114 -91 -184 -185 -107 -145 -158 -312 -161 -529 -1
-76 1 -155 6 -175 4 -20 10 -47 12 -61 17 -95 98 -272 171 -374 152 -213 355
-365 666 -499 38 -17 228 -74 268 -82 14 -2 48 -9 76 -14 66 -13 109 -20 176
-29 66 -8 492 -7 570 1 30 4 78 9 105 12 28 3 64 8 80 11 17 4 41 8 55 9 33 4
85 14 135 26 22 5 51 12 65 15 71 15 280 81 347 110 17 8 34 14 38 14 10 0
215 103 288 146 38 21 77 44 88 50 10 6 27 18 37 27 10 10 22 17 25 17 4 0 35
21 69 48 187 141 345 291 478 452 25 30 48 56 53 58 4 2 7 8 7 13 0 5 10 20
23 35 12 14 48 62 79 107 32 45 61 87 66 92 4 6 34 54 66 108 33 54 63 100 68
103 4 3 8 14 8 25 0 10 4 19 8 19 10 0 228 434 237 473 4 15 11 27 16 27 5 0
9 7 9 16 0 8 9 34 19 57 11 23 33 78 50 122 18 44 36 89 40 100 9 19 28 71 67
178 l17 47 51 1 c177 3 453 15 556 24 19 1 71 6 115 10 44 4 94 8 110 10 17 2
57 6 90 10 33 3 71 8 85 10 14 3 45 7 70 10 25 3 68 10 95 15 28 5 68 12 90
15 22 4 54 9 70 11 122 20 450 100 600 147 116 37 239 81 325 117 41 17 80 32
86 34 7 1 19 8 28 15 9 7 16 11 16 8 0 -22 497 257 508 285 2 4 8 8 14 8 9 0
62 38 99 70 10 8 24 20 31 25 121 90 313 286 403 410 16 22 32 42 35 45 16 13
122 195 162 280 62 130 120 291 121 338 0 6 4 12 9 12 5 0 7 4 4 8 -3 5 -1 24
4 43 9 34 13 53 27 144 9 57 8 402 -1 455 -31 182 -71 315 -141 465 -33 70
-114 212 -137 240 -5 6 -30 39 -57 75 -44 59 -63 82 -150 175 -40 43 -117 113
-181 165 -30 25 -57 47 -60 50 -16 17 -80 60 -88 60 -6 0 -12 7 -16 15 -3 8
-10 15 -16 15 -6 0 -32 15 -58 33 -171 120 -570 304 -817 377 -16 4 -38 11
-65 20 -14 4 -47 14 -75 20 -27 7 -68 18 -90 25 -40 13 -219 51 -367 79 -69
13 -206 33 -278 41 -25 3 -61 7 -80 10 -34 4 -90 9 -235 22 -78 6 -762 13
-768 7z"/>
</g>
</svg>
