<svg width="275" height="132" viewBox="0 0 275 132" fill="none" xmlns="http://www.w3.org/2000/svg">
<path d="M6.899 27.737V24.576L16.469 11.7H21.399L12.032 24.576L9.741 23.909H25.72V27.737H6.899ZM17.832 32V27.737L17.977 23.909V20.11H22.414V32H17.832ZM30.3595 32.232C29.5862 32.232 28.9192 31.971 28.3585 31.449C27.8172 30.9077 27.5465 30.2213 27.5465 29.39C27.5465 28.5587 27.8172 27.8917 28.3585 27.389C28.9192 26.867 29.5862 26.606 30.3595 26.606C31.1522 26.606 31.8192 26.867 32.3605 27.389C32.9019 27.8917 33.1725 28.5587 33.1725 29.39C33.1725 30.2213 32.9019 30.9077 32.3605 31.449C31.8192 31.971 31.1522 32.232 30.3595 32.232ZM42.4154 11.352C44.2907 11.352 45.9051 11.7387 47.2584 12.512C48.6117 13.2853 49.6557 14.4163 50.3904 15.905C51.1251 17.3743 51.4924 19.211 51.4924 21.415C51.4924 23.7543 51.0477 25.736 50.1584 27.36C49.2884 28.984 48.0801 30.2213 46.5334 31.072C44.9867 31.9227 43.1887 32.348 41.1394 32.348C40.0761 32.348 39.0514 32.232 38.0654 32C37.0794 31.768 36.2287 31.42 35.5134 30.956L37.2534 27.505C37.8141 27.8917 38.4134 28.1623 39.0514 28.317C39.6894 28.4523 40.3564 28.52 41.0524 28.52C42.7924 28.52 44.1747 27.9883 45.1994 26.925C46.2434 25.8617 46.7654 24.286 46.7654 22.198C46.7654 21.85 46.7557 21.4633 46.7364 21.038C46.7171 20.6127 46.6687 20.1873 46.5914 19.762L47.8674 20.98C47.5387 21.734 47.0747 22.372 46.4754 22.894C45.8761 23.3967 45.1801 23.7833 44.3874 24.054C43.5947 24.3053 42.7054 24.431 41.7194 24.431C40.4241 24.431 39.2447 24.17 38.1814 23.648C37.1374 23.126 36.2964 22.3913 35.6584 21.444C35.0397 20.4967 34.7304 19.385 34.7304 18.109C34.7304 16.717 35.0687 15.5183 35.7454 14.513C36.4414 13.5077 37.3694 12.7343 38.5294 12.193C39.7087 11.6323 41.0041 11.352 42.4154 11.352ZM42.7054 14.861C42.0287 14.861 41.4391 14.9867 40.9364 15.238C40.4337 15.47 40.0374 15.818 39.7474 16.282C39.4574 16.7267 39.3124 17.2583 39.3124 17.877C39.3124 18.805 39.6217 19.5493 40.2404 20.11C40.8784 20.6513 41.7194 20.922 42.7634 20.922C43.4401 20.922 44.0394 20.7963 44.5614 20.545C45.1027 20.2743 45.5184 19.907 45.8084 19.443C46.0984 18.979 46.2434 18.457 46.2434 17.877C46.2434 17.297 46.0984 16.7847 45.8084 16.34C45.5377 15.876 45.1414 15.5183 44.6194 15.267C44.0974 14.9963 43.4594 14.861 42.7054 14.861ZM51.0918 34.9L60.6618 7.582H64.6928L55.1228 34.9H51.0918ZM71.4383 32.348C70.0269 32.348 68.6253 32.1643 67.2333 31.797C65.8606 31.4103 64.6813 30.869 63.6953 30.173L65.5513 26.577C66.3246 27.1377 67.2139 27.5823 68.2193 27.911C69.2439 28.2397 70.2783 28.404 71.3223 28.404C72.5016 28.404 73.4296 28.172 74.1063 27.708C74.7829 27.244 75.1213 26.5963 75.1213 25.765C75.1213 25.243 74.9859 24.779 74.7153 24.373C74.4446 23.967 73.9613 23.6577 73.2653 23.445C72.5886 23.2323 71.6316 23.126 70.3943 23.126H65.2033L66.2473 11.7H78.6303V15.47H67.9293L70.3653 13.324L69.6403 21.473L67.2043 19.327H71.4963C73.5069 19.327 75.1213 19.6073 76.3393 20.168C77.5766 20.7093 78.4756 21.4537 79.0363 22.401C79.5969 23.3483 79.8773 24.4213 79.8773 25.62C79.8773 26.8187 79.5776 27.9303 78.9783 28.955C78.3789 29.9603 77.4509 30.782 76.1943 31.42C74.9569 32.0387 73.3716 32.348 71.4383 32.348Z" fill="#34373E"/>
<path d="M6.486 115V101.14L7.389 102.127H3.168V100.3H8.565V115H6.486ZM16.2745 115.168C15.2385 115.168 14.2305 115.007 13.2505 114.685C12.2845 114.363 11.4935 113.929 10.8775 113.383L11.8435 111.724C12.3335 112.186 12.9705 112.564 13.7545 112.858C14.5385 113.152 15.3785 113.299 16.2745 113.299C17.3665 113.299 18.2135 113.068 18.8155 112.606C19.4315 112.13 19.7395 111.493 19.7395 110.695C19.7395 109.925 19.4455 109.309 18.8575 108.847C18.2835 108.371 17.3665 108.133 16.1065 108.133H14.9305V106.663L19.2985 101.287L19.5925 102.127H11.5495V100.3H21.2515V101.728L16.9045 107.083L15.8125 106.432H16.5055C18.2835 106.432 19.6135 106.831 20.4955 107.629C21.3915 108.427 21.8395 109.442 21.8395 110.674C21.8395 111.5 21.6365 112.256 21.2305 112.942C20.8245 113.628 20.2085 114.174 19.3825 114.58C18.5705 114.972 17.5345 115.168 16.2745 115.168ZM26.339 112.312L26.381 109.729L32.786 103.87H35.222L30.308 108.7L29.216 109.624L26.339 112.312ZM24.701 115V99.418H26.717V115H24.701ZM33.206 115L28.838 109.582L30.14 107.965L35.684 115H33.206ZM40.4878 112.249V103.051H42.2518V112.249H40.4878ZM36.6658 108.49V106.831H46.0738V108.49H36.6658ZM61.9411 115V112.648L61.8361 112.207V108.196C61.8361 107.342 61.5841 106.684 61.0801 106.222C60.5901 105.746 59.8481 105.508 58.8541 105.508C58.1961 105.508 57.5521 105.62 56.9221 105.844C56.2921 106.054 55.7601 106.341 55.3261 106.705L54.4861 105.193C55.0601 104.731 55.7461 104.381 56.5441 104.143C57.3561 103.891 58.2031 103.765 59.0851 103.765C60.6111 103.765 61.7871 104.136 62.6131 104.878C63.4391 105.62 63.8521 106.754 63.8521 108.28V115H61.9411ZM58.2871 115.126C57.4611 115.126 56.7331 114.986 56.1031 114.706C55.4871 114.426 55.0111 114.041 54.6751 113.551C54.3391 113.047 54.1711 112.48 54.1711 111.85C54.1711 111.248 54.3111 110.702 54.5911 110.212C54.8851 109.722 55.3541 109.33 55.9981 109.036C56.6561 108.742 57.5381 108.595 58.6441 108.595H62.1721V110.044H58.7281C57.7201 110.044 57.0411 110.212 56.6911 110.548C56.3411 110.884 56.1661 111.29 56.1661 111.766C56.1661 112.312 56.3831 112.753 56.8171 113.089C57.2511 113.411 57.8531 113.572 58.6231 113.572C59.3791 113.572 60.0371 113.404 60.5971 113.068C61.1711 112.732 61.5841 112.242 61.8361 111.598L62.2351 112.984C61.9691 113.642 61.5001 114.167 60.8281 114.559C60.1561 114.937 59.3091 115.126 58.2871 115.126ZM70.2968 115L65.4248 103.87H67.5248L71.8508 113.95H70.8428L75.2528 103.87H77.2268L72.3548 115H70.2968ZM79.1083 115V103.87H81.1243V115H79.1083ZM80.1163 101.728C79.7243 101.728 79.3953 101.602 79.1293 101.35C78.8773 101.098 78.7513 100.79 78.7513 100.426C78.7513 100.048 78.8773 99.733 79.1293 99.481C79.3953 99.229 79.7243 99.103 80.1163 99.103C80.5083 99.103 80.8303 99.229 81.0823 99.481C81.3483 99.719 81.4813 100.02 81.4813 100.384C81.4813 100.762 81.3553 101.084 81.1033 101.35C80.8513 101.602 80.5223 101.728 80.1163 101.728ZM88.1655 115.126C87.2415 115.126 86.3595 115 85.5195 114.748C84.6935 114.496 84.0425 114.188 83.5665 113.824L84.4065 112.228C84.8825 112.55 85.4705 112.823 86.1705 113.047C86.8705 113.271 87.5845 113.383 88.3125 113.383C89.2505 113.383 89.9225 113.25 90.3285 112.984C90.7485 112.718 90.9585 112.347 90.9585 111.871C90.9585 111.521 90.8325 111.248 90.5805 111.052C90.3285 110.856 89.9925 110.709 89.5725 110.611C89.1665 110.513 88.7115 110.429 88.2075 110.359C87.7035 110.275 87.1995 110.177 86.6955 110.065C86.1915 109.939 85.7295 109.771 85.3095 109.561C84.8895 109.337 84.5535 109.036 84.3015 108.658C84.0495 108.266 83.9235 107.748 83.9235 107.104C83.9235 106.432 84.1125 105.844 84.4905 105.34C84.8685 104.836 85.4005 104.451 86.0865 104.185C86.7865 103.905 87.6125 103.765 88.5645 103.765C89.2925 103.765 90.0275 103.856 90.7695 104.038C91.5255 104.206 92.1415 104.451 92.6175 104.773L91.7565 106.369C91.2525 106.033 90.7275 105.802 90.1815 105.676C89.6355 105.55 89.0895 105.487 88.5435 105.487C87.6615 105.487 87.0035 105.634 86.5695 105.928C86.1355 106.208 85.9185 106.572 85.9185 107.02C85.9185 107.398 86.0445 107.692 86.2965 107.902C86.5625 108.098 86.8985 108.252 87.3045 108.364C87.7245 108.476 88.1865 108.574 88.6905 108.658C89.1945 108.728 89.6985 108.826 90.2025 108.952C90.7065 109.064 91.1615 109.225 91.5675 109.435C91.9875 109.645 92.3235 109.939 92.5755 110.317C92.8415 110.695 92.9745 111.199 92.9745 111.829C92.9745 112.501 92.7785 113.082 92.3865 113.572C91.9945 114.062 91.4415 114.447 90.7275 114.727C90.0135 114.993 89.1595 115.126 88.1655 115.126Z" fill="#34373E"/>
<g clip-path="url(#clip0_2_491)">
<path d="M21.6223 53.3178C22.3706 51.0145 25.6292 51.0145 26.3776 53.3178L28.8271 60.8563C29.1617 61.8864 30.1216 62.5838 31.2047 62.5838H39.1311C41.553 62.5838 42.5599 65.6828 40.6006 67.1063L34.188 71.7654C33.3118 72.402 32.9451 73.5304 33.2798 74.5605L35.7291 82.099C36.4775 84.4023 33.8414 86.3176 31.882 84.8941L25.4694 80.235C24.5931 79.5984 23.4068 79.5984 22.5305 80.235L16.1179 84.8941C14.1586 86.3176 11.5223 84.4023 12.2707 82.099L14.7201 74.5605C15.0548 73.5304 14.6881 72.402 13.8119 71.7654L7.39934 67.1063C5.44006 65.6828 6.447 62.5838 8.8688 62.5838H16.7952C17.8783 62.5838 18.8382 61.8864 19.1728 60.8563L21.6223 53.3178Z" fill="#FFC750"/>
</g>
<g clip-path="url(#clip1_2_491)">
<path d="M125.622 53.3178C126.371 51.0145 129.629 51.0145 130.378 53.3178L132.827 60.8563C133.162 61.8864 134.122 62.5838 135.205 62.5838H143.131C145.553 62.5838 146.56 65.6828 144.601 67.1063L138.188 71.7654C137.312 72.402 136.945 73.5304 137.28 74.5605L139.729 82.099C140.478 84.4023 137.841 86.3176 135.882 84.8941L129.469 80.235C128.593 79.5984 127.407 79.5984 126.53 80.235L120.118 84.8941C118.159 86.3176 115.522 84.4023 116.271 82.099L118.72 74.5605C119.055 73.5304 118.688 72.402 117.812 71.7654L111.399 67.1063C109.44 65.6828 110.447 62.5838 112.869 62.5838H120.795C121.878 62.5838 122.838 61.8864 123.173 60.8563L125.622 53.3178Z" fill="#FFC750"/>
</g>
<g clip-path="url(#clip2_2_491)">
<path d="M73.6223 53.3178C74.3706 51.0145 77.6292 51.0145 78.3776 53.3178L80.8271 60.8563C81.1617 61.8864 82.1216 62.5838 83.2047 62.5838H91.1311C93.553 62.5838 94.5599 65.6828 92.6006 67.1063L86.188 71.7654C85.3118 72.402 84.9451 73.5304 85.2798 74.5605L87.7291 82.099C88.4775 84.4023 85.8414 86.3176 83.882 84.8941L77.4694 80.235C76.5931 79.5984 75.4068 79.5984 74.5305 80.235L68.1179 84.8941C66.1586 86.3176 63.5223 84.4023 64.2707 82.099L66.7201 74.5605C67.0548 73.5304 66.6881 72.402 65.8119 71.7654L59.3993 67.1063C57.4401 65.6828 58.447 62.5838 60.8688 62.5838H68.7952C69.8783 62.5838 70.8382 61.8864 71.1728 60.8563L73.6223 53.3178Z" fill="#FFC750"/>
</g>
<g clip-path="url(#clip3_2_491)">
<path d="M177.622 53.3178C178.371 51.0145 181.629 51.0145 182.378 53.3178L184.827 60.8563C185.162 61.8864 186.122 62.5838 187.205 62.5838H195.131C197.553 62.5838 198.56 65.6828 196.601 67.1063L190.188 71.7654C189.312 72.402 188.945 73.5304 189.28 74.5605L191.729 82.099C192.478 84.4023 189.841 86.3176 187.882 84.8941L181.469 80.235C180.593 79.5984 179.407 79.5984 178.53 80.235L172.118 84.8941C170.159 86.3176 167.522 84.4023 168.271 82.099L170.72 74.5605C171.055 73.5304 170.688 72.402 169.812 71.7654L163.399 67.1063C161.44 65.6828 162.447 62.5838 164.869 62.5838H172.795C173.878 62.5838 174.838 61.8864 175.173 60.8563L177.622 53.3178Z" fill="#FFC750"/>
</g>
<g clip-path="url(#clip4_2_491)">
<path d="M230.622 53.3178C231.371 51.0145 234.629 51.0145 235.378 53.3178L237.827 60.8563C238.162 61.8864 239.122 62.5838 240.205 62.5838H248.131C250.553 62.5838 251.56 65.6828 249.601 67.1063L243.188 71.7654C242.312 72.402 241.945 73.5304 242.28 74.5605L244.729 82.099C245.478 84.4023 242.841 86.3176 240.882 84.8941L234.469 80.235C233.593 79.5984 232.407 79.5984 231.53 80.235L225.118 84.8941C223.159 86.3176 220.522 84.4023 221.271 82.099L223.72 74.5605C224.055 73.5304 223.688 72.402 222.812 71.7654L216.399 67.1063C214.44 65.6828 215.447 62.5838 217.869 62.5838H225.795C226.878 62.5838 227.838 61.8864 228.173 60.8563L230.622 53.3178Z" fill="#FFC750"/>
</g>
<defs>
<clipPath id="clip0_2_491">
<rect width="48" height="48" fill="white" transform="translate(0 46)"/>
</clipPath>
<clipPath id="clip1_2_491">
<rect width="48" height="48" fill="white" transform="translate(104 46)"/>
</clipPath>
<clipPath id="clip2_2_491">
<rect width="48" height="48" fill="white" transform="translate(52 46)"/>
</clipPath>
<clipPath id="clip3_2_491">
<rect width="48" height="48" fill="white" transform="translate(156 46)"/>
</clipPath>
<clipPath id="clip4_2_491">
<rect width="48" height="48" fill="white" transform="translate(209 46)"/>
</clipPath>
</defs>
</svg>
