<svg width="445" height="317" viewBox="0 0 445 317" fill="none" xmlns="http://www.w3.org/2000/svg">
<path d="M1.812 50.5938V5.79375H12.18V42.1458H34.644V50.5938H1.812ZM56.6335 51.1058C52.7082 51.1058 49.2522 50.3377 46.2655 48.8017C43.3215 47.2657 41.0388 45.1751 39.4175 42.5297C37.7962 39.8417 36.9855 36.7911 36.9855 33.3777C36.9855 29.9217 37.7748 26.8711 39.3535 24.2257C40.9748 21.5377 43.1722 19.4471 45.9455 17.9537C48.7188 16.4177 51.8548 15.6497 55.3535 15.6497C58.7242 15.6497 61.7535 16.3751 64.4415 17.8257C67.1722 19.2337 69.3268 21.2817 70.9055 23.9697C72.4842 26.6151 73.2735 29.7937 73.2735 33.5057C73.2735 33.8897 73.2522 34.3377 73.2095 34.8497C73.1668 35.3191 73.1242 35.7671 73.0815 36.1937H45.1135V30.3697H67.8335L63.9935 32.0977C63.9935 30.3057 63.6308 28.7484 62.9055 27.4257C62.1802 26.1031 61.1775 25.0791 59.8975 24.3537C58.6175 23.5857 57.1242 23.2017 55.4175 23.2017C53.7108 23.2017 52.1962 23.5857 50.8735 24.3537C49.5935 25.0791 48.5908 26.1244 47.8655 27.4897C47.1402 28.8124 46.7775 30.3911 46.7775 32.2257V33.7617C46.7775 35.6391 47.1828 37.3031 47.9935 38.7537C48.8468 40.1617 50.0202 41.2497 51.5135 42.0177C53.0495 42.7431 54.8415 43.1057 56.8895 43.1057C58.7242 43.1057 60.3242 42.8284 61.6895 42.2737C63.0975 41.7191 64.3775 40.8871 65.5295 39.7777L70.8415 45.5377C69.2628 47.3297 67.2788 48.7164 64.8895 49.6977C62.5002 50.6364 59.7482 51.1058 56.6335 51.1058ZM91.5045 51.1058C88.5605 51.1058 85.7232 50.7644 82.9925 50.0817C80.3045 49.3564 78.1712 48.4604 76.5925 47.3937L79.9205 40.2257C81.4992 41.2071 83.3552 42.0177 85.4885 42.6577C87.6645 43.2551 89.7978 43.5537 91.8885 43.5537C94.1925 43.5537 95.8138 43.2764 96.7525 42.7217C97.7338 42.1671 98.2245 41.3991 98.2245 40.4177C98.2245 39.6071 97.8405 39.0097 97.0725 38.6257C96.3472 38.1991 95.3658 37.8791 94.1285 37.6657C92.8912 37.4524 91.5258 37.2391 90.0325 37.0257C88.5818 36.8124 87.1098 36.5351 85.6165 36.1937C84.1232 35.8097 82.7578 35.2551 81.5205 34.5297C80.2832 33.8044 79.2805 32.8231 78.5125 31.5857C77.7872 30.3484 77.4245 28.7484 77.4245 26.7857C77.4245 24.6097 78.0432 22.6897 79.2805 21.0257C80.5605 19.3617 82.3952 18.0604 84.7845 17.1217C87.1738 16.1404 90.0325 15.6497 93.3605 15.6497C95.7072 15.6497 98.0965 15.9057 100.529 16.4177C102.961 16.9297 104.987 17.6764 106.609 18.6577L103.281 25.7617C101.617 24.7804 99.9312 24.1191 98.2245 23.7777C96.5605 23.3937 94.9392 23.2017 93.3605 23.2017C91.1418 23.2017 89.5205 23.5004 88.4965 24.0977C87.4725 24.6951 86.9605 25.4631 86.9605 26.4017C86.9605 27.2551 87.3232 27.8951 88.0485 28.3217C88.8165 28.7484 89.8192 29.0897 91.0565 29.3457C92.2938 29.6017 93.6378 29.8364 95.0885 30.0497C96.5818 30.2204 98.0752 30.4977 99.5685 30.8817C101.062 31.2657 102.406 31.8204 103.601 32.5457C104.838 33.2284 105.841 34.1884 106.609 35.4257C107.377 36.6204 107.761 38.1991 107.761 40.1617C107.761 42.2951 107.121 44.1937 105.841 45.8577C104.561 47.4791 102.705 48.7591 100.273 49.6977C97.8832 50.6364 94.9605 51.1058 91.5045 51.1058ZM176.142 15.6497C178.872 15.6497 181.283 16.2044 183.374 17.3137C185.507 18.3804 187.171 20.0444 188.366 22.3057C189.603 24.5244 190.222 27.3831 190.222 30.8817V50.5938H180.238V32.4177C180.238 29.6444 179.662 27.5964 178.51 26.2737C177.358 24.9511 175.736 24.2897 173.646 24.2897C172.195 24.2897 170.894 24.6311 169.742 25.3137C168.59 25.9537 167.694 26.9351 167.054 28.2577C166.414 29.5804 166.094 31.2657 166.094 33.3137V50.5938H156.11V32.4177C156.11 29.6444 155.534 27.5964 154.382 26.2737C153.272 24.9511 151.672 24.2897 149.582 24.2897C148.131 24.2897 146.83 24.6311 145.678 25.3137C144.526 25.9537 143.63 26.9351 142.99 28.2577C142.35 29.5804 142.03 31.2657 142.03 33.3137V50.5938H132.046V16.1617H141.582V25.5697L139.79 22.8177C140.984 20.4711 142.67 18.7004 144.846 17.5057C147.064 16.2684 149.582 15.6497 152.398 15.6497C155.555 15.6497 158.307 16.4604 160.654 18.0817C163.043 19.6604 164.622 22.0924 165.39 25.3777L161.87 24.4177C163.022 21.7297 164.856 19.5964 167.374 18.0177C169.934 16.4391 172.856 15.6497 176.142 15.6497ZM216.509 51.1058C212.583 51.1058 209.127 50.3377 206.141 48.8017C203.197 47.2657 200.914 45.1751 199.293 42.5297C197.671 39.8417 196.861 36.7911 196.861 33.3777C196.861 29.9217 197.65 26.8711 199.229 24.2257C200.85 21.5377 203.047 19.4471 205.821 17.9537C208.594 16.4177 211.73 15.6497 215.229 15.6497C218.599 15.6497 221.629 16.3751 224.317 17.8257C227.047 19.2337 229.202 21.2817 230.781 23.9697C232.359 26.6151 233.149 29.7937 233.149 33.5057C233.149 33.8897 233.127 34.3377 233.085 34.8497C233.042 35.3191 232.999 35.7671 232.957 36.1937H204.989V30.3697H227.708L223.869 32.0977C223.869 30.3057 223.506 28.7484 222.781 27.4257C222.055 26.1031 221.053 25.0791 219.773 24.3537C218.493 23.5857 216.999 23.2017 215.293 23.2017C213.586 23.2017 212.071 23.5857 210.749 24.3537C209.469 25.0791 208.466 26.1244 207.741 27.4897C207.015 28.8124 206.653 30.3911 206.653 32.2257V33.7617C206.653 35.6391 207.058 37.3031 207.869 38.7537C208.722 40.1617 209.895 41.2497 211.389 42.0177C212.925 42.7431 214.717 43.1057 216.765 43.1057C218.599 43.1057 220.199 42.8284 221.565 42.2737C222.973 41.7191 224.253 40.8871 225.405 39.7777L230.717 45.5377C229.138 47.3297 227.154 48.7164 224.765 49.6977C222.375 50.6364 219.623 51.1058 216.509 51.1058ZM239.796 50.5938V16.1617H249.78V50.5938H239.796ZM244.788 11.3617C242.953 11.3617 241.46 10.8284 240.308 9.76175C239.156 8.69508 238.58 7.37241 238.58 5.79375C238.58 4.21508 239.156 2.89241 240.308 1.82575C241.46 0.75908 242.953 0.225746 244.788 0.225746C246.622 0.225746 248.116 0.737747 249.268 1.76175C250.42 2.74308 250.996 4.02308 250.996 5.60175C250.996 7.26575 250.42 8.65241 249.268 9.76175C248.158 10.8284 246.665 11.3617 244.788 11.3617ZM259.046 50.5938V3.10575H269.03V50.5938H259.046ZM278.296 50.5938V3.10575H288.28V50.5938H278.296ZM314.634 51.1058C310.708 51.1058 307.252 50.3377 304.266 48.8017C301.322 47.2657 299.039 45.1751 297.418 42.5297C295.796 39.8417 294.986 36.7911 294.986 33.3777C294.986 29.9217 295.775 26.8711 297.354 24.2257C298.975 21.5377 301.172 19.4471 303.946 17.9537C306.719 16.4177 309.855 15.6497 313.354 15.6497C316.724 15.6497 319.754 16.3751 322.442 17.8257C325.172 19.2337 327.327 21.2817 328.906 23.9697C330.484 26.6151 331.274 29.7937 331.274 33.5057C331.274 33.8897 331.252 34.3377 331.21 34.8497C331.167 35.3191 331.124 35.7671 331.082 36.1937H303.114V30.3697H325.833L321.994 32.0977C321.994 30.3057 321.631 28.7484 320.906 27.4257C320.18 26.1031 319.178 25.0791 317.898 24.3537C316.618 23.5857 315.124 23.2017 313.418 23.2017C311.711 23.2017 310.196 23.5857 308.874 24.3537C307.594 25.0791 306.591 26.1244 305.866 27.4897C305.14 28.8124 304.778 30.3911 304.778 32.2257V33.7617C304.778 35.6391 305.183 37.3031 305.994 38.7537C306.847 40.1617 308.02 41.2497 309.514 42.0177C311.05 42.7431 312.842 43.1057 314.89 43.1057C316.724 43.1057 318.324 42.8284 319.69 42.2737C321.098 41.7191 322.378 40.8871 323.53 39.7777L328.842 45.5377C327.263 47.3297 325.279 48.7164 322.89 49.6977C320.5 50.6364 317.748 51.1058 314.634 51.1058ZM352.449 51.1058C349.59 51.1058 347.03 50.5511 344.769 49.4417C342.55 48.3324 340.822 46.6471 339.585 44.3857C338.347 42.0817 337.729 39.1591 337.729 35.6177V16.1617H347.713V34.1458C347.713 37.0044 348.31 39.1164 349.505 40.4817C350.742 41.8044 352.47 42.4657 354.689 42.4657C356.225 42.4657 357.59 42.1457 358.785 41.5057C359.979 40.8231 360.918 39.7991 361.601 38.4337C362.283 37.0257 362.625 35.2764 362.625 33.1857V16.1617H372.609V50.5938H363.137V41.1217L364.865 43.8737C363.713 46.2631 362.006 48.0764 359.745 49.3137C357.526 50.5084 355.094 51.1058 352.449 51.1058ZM381.858 50.5938V16.1617H391.394V25.8897L390.05 23.0737C391.074 20.6417 392.717 18.8071 394.978 17.5697C397.239 16.2897 399.991 15.6497 403.234 15.6497V24.8657C402.807 24.8231 402.423 24.8017 402.082 24.8017C401.741 24.7591 401.378 24.7377 400.994 24.7377C398.263 24.7377 396.045 25.5271 394.338 27.1057C392.674 28.6417 391.842 31.0524 391.842 34.3377V50.5938H381.858ZM421.005 51.1058C418.061 51.1058 415.223 50.7644 412.493 50.0817C409.805 49.3564 407.671 48.4604 406.093 47.3937L409.421 40.2257C410.999 41.2071 412.855 42.0177 414.989 42.6577C417.165 43.2551 419.298 43.5537 421.389 43.5537C423.693 43.5537 425.314 43.2764 426.253 42.7217C427.234 42.1671 427.725 41.3991 427.725 40.4177C427.725 39.6071 427.341 39.0097 426.573 38.6257C425.847 38.1991 424.866 37.8791 423.628 37.6657C422.391 37.4524 421.026 37.2391 419.533 37.0257C418.082 36.8124 416.61 36.5351 415.117 36.1937C413.623 35.8097 412.258 35.2551 411.021 34.5297C409.783 33.8044 408.781 32.8231 408.013 31.5857C407.287 30.3484 406.924 28.7484 406.924 26.7857C406.924 24.6097 407.543 22.6897 408.781 21.0257C410.061 19.3617 411.895 18.0604 414.285 17.1217C416.674 16.1404 419.533 15.6497 422.861 15.6497C425.207 15.6497 427.597 15.9057 430.029 16.4177C432.461 16.9297 434.487 17.6764 436.109 18.6577L432.781 25.7617C431.117 24.7804 429.431 24.1191 427.725 23.7777C426.061 23.3937 424.439 23.2017 422.861 23.2017C420.642 23.2017 419.021 23.5004 417.997 24.0977C416.973 24.6951 416.461 25.4631 416.461 26.4017C416.461 27.2551 416.823 27.8951 417.549 28.3217C418.317 28.7484 419.319 29.0897 420.557 29.3457C421.794 29.6017 423.138 29.8364 424.589 30.0497C426.082 30.2204 427.575 30.4977 429.069 30.8817C430.562 31.2657 431.906 31.8204 433.101 32.5457C434.338 33.2284 435.341 34.1884 436.109 35.4257C436.877 36.6204 437.261 38.1991 437.261 40.1617C437.261 42.2951 436.621 44.1937 435.341 45.8577C434.061 47.4791 432.205 48.7591 429.773 49.6977C427.383 50.6364 424.461 51.1058 421.005 51.1058ZM1.108 134.594V100.162H10.644V109.89L9.3 107.074C10.324 104.642 11.9667 102.807 14.228 101.57C16.4893 100.29 19.2413 99.6497 22.484 99.6497V108.866C22.0573 108.823 21.6733 108.802 21.332 108.802C20.9907 108.759 20.628 108.738 20.244 108.738C17.5133 108.738 15.2947 109.527 13.588 111.106C11.924 112.642 11.092 115.052 11.092 118.338V134.594H1.108ZM45.2585 135.106C41.3332 135.106 37.8772 134.338 34.8905 132.802C31.9465 131.266 29.6638 129.175 28.0425 126.53C26.4212 123.842 25.6105 120.791 25.6105 117.378C25.6105 113.922 26.3998 110.871 27.9785 108.226C29.5998 105.538 31.7972 103.447 34.5705 101.954C37.3438 100.418 40.4798 99.6497 43.9785 99.6497C47.3492 99.6497 50.3785 100.375 53.0665 101.826C55.7972 103.234 57.9518 105.282 59.5305 107.97C61.1092 110.615 61.8985 113.794 61.8985 117.506C61.8985 117.89 61.8772 118.338 61.8345 118.85C61.7918 119.319 61.7492 119.767 61.7065 120.194H33.7385V114.37H56.4585L52.6185 116.098C52.6185 114.306 52.2558 112.748 51.5305 111.426C50.8052 110.103 49.8025 109.079 48.5225 108.354C47.2425 107.586 45.7492 107.202 44.0425 107.202C42.3358 107.202 40.8212 107.586 39.4985 108.354C38.2185 109.079 37.2158 110.124 36.4905 111.49C35.7652 112.812 35.4025 114.391 35.4025 116.226V117.762C35.4025 119.639 35.8078 121.303 36.6185 122.754C37.4718 124.162 38.6452 125.25 40.1385 126.018C41.6745 126.743 43.4665 127.106 45.5145 127.106C47.3492 127.106 48.9492 126.828 50.3145 126.274C51.7225 125.719 53.0025 124.887 54.1545 123.778L59.4665 129.538C57.8878 131.33 55.9038 132.716 53.5145 133.698C51.1252 134.636 48.3732 135.106 45.2585 135.106ZM80.1295 135.106C77.1855 135.106 74.3482 134.764 71.6175 134.082C68.9295 133.356 66.7962 132.46 65.2175 131.394L68.5455 124.226C70.1242 125.207 71.9802 126.018 74.1135 126.658C76.2895 127.255 78.4228 127.554 80.5135 127.554C82.8175 127.554 84.4388 127.276 85.3775 126.722C86.3588 126.167 86.8495 125.399 86.8495 124.418C86.8495 123.607 86.4655 123.01 85.6975 122.626C84.9722 122.199 83.9908 121.879 82.7535 121.666C81.5162 121.452 80.1508 121.239 78.6575 121.026C77.2068 120.812 75.7348 120.535 74.2415 120.194C72.7482 119.81 71.3828 119.255 70.1455 118.53C68.9082 117.804 67.9055 116.823 67.1375 115.586C66.4122 114.348 66.0495 112.748 66.0495 110.786C66.0495 108.61 66.6682 106.69 67.9055 105.026C69.1855 103.362 71.0202 102.06 73.4095 101.122C75.7988 100.14 78.6575 99.6497 81.9855 99.6497C84.3322 99.6497 86.7215 99.9057 89.1535 100.418C91.5855 100.93 93.6122 101.676 95.2335 102.658L91.9055 109.762C90.2415 108.78 88.5562 108.119 86.8495 107.778C85.1855 107.394 83.5642 107.202 81.9855 107.202C79.7668 107.202 78.1455 107.5 77.1215 108.098C76.0975 108.695 75.5855 109.463 75.5855 110.402C75.5855 111.255 75.9482 111.895 76.6735 112.322C77.4415 112.748 78.4442 113.09 79.6815 113.346C80.9188 113.602 82.2628 113.836 83.7135 114.05C85.2068 114.22 86.7002 114.498 88.1935 114.882C89.6868 115.266 91.0308 115.82 92.2255 116.546C93.4628 117.228 94.4655 118.188 95.2335 119.426C96.0015 120.62 96.3855 122.199 96.3855 124.162C96.3855 126.295 95.7455 128.194 94.4655 129.858C93.1855 131.479 91.3295 132.759 88.8975 133.698C86.5082 134.636 83.5855 135.106 80.1295 135.106ZM116.626 135.106C112.572 135.106 109.415 134.082 107.154 132.034C104.892 129.943 103.762 126.85 103.762 122.754V92.5457H113.746V122.626C113.746 124.076 114.13 125.207 114.898 126.018C115.666 126.786 116.711 127.17 118.034 127.17C119.612 127.17 120.956 126.743 122.066 125.89L124.754 132.93C123.73 133.655 122.492 134.21 121.042 134.594C119.634 134.935 118.162 135.106 116.626 135.106ZM98.4495 108.61V100.93H122.322V108.61H98.4495ZM151.478 134.594V127.874L150.838 126.402V114.37C150.838 112.236 150.177 110.572 148.854 109.378C147.574 108.183 145.59 107.586 142.902 107.586C141.067 107.586 139.254 107.884 137.462 108.482C135.713 109.036 134.219 109.804 132.982 110.786L129.398 103.81C131.275 102.487 133.537 101.463 136.182 100.738C138.827 100.012 141.515 99.6497 144.246 99.6497C149.494 99.6497 153.569 100.887 156.47 103.362C159.371 105.836 160.822 109.698 160.822 114.946V134.594H151.478ZM140.982 135.106C138.294 135.106 135.99 134.658 134.07 133.762C132.15 132.823 130.678 131.564 129.654 129.986C128.63 128.407 128.118 126.636 128.118 124.674C128.118 122.626 128.609 120.834 129.59 119.298C130.614 117.762 132.214 116.567 134.39 115.714C136.566 114.818 139.403 114.37 142.902 114.37H152.054V120.194H143.99C141.643 120.194 140.022 120.578 139.126 121.346C138.273 122.114 137.846 123.074 137.846 124.226C137.846 125.506 138.337 126.53 139.318 127.298C140.342 128.023 141.729 128.386 143.478 128.386C145.142 128.386 146.635 128.002 147.958 127.234C149.281 126.423 150.241 125.25 150.838 123.714L152.374 128.322C151.649 130.54 150.326 132.226 148.406 133.378C146.486 134.53 144.011 135.106 140.982 135.106ZM184.386 135.106C181.527 135.106 178.967 134.551 176.706 133.442C174.487 132.332 172.759 130.647 171.522 128.386C170.285 126.082 169.666 123.159 169.666 119.618V100.162H179.65V118.146C179.65 121.004 180.247 123.116 181.442 124.482C182.679 125.804 184.407 126.466 186.626 126.466C188.162 126.466 189.527 126.146 190.722 125.506C191.917 124.823 192.855 123.799 193.538 122.434C194.221 121.026 194.562 119.276 194.562 117.186V100.162H204.546V134.594H195.074V125.122L196.802 127.874C195.65 130.263 193.943 132.076 191.682 133.314C189.463 134.508 187.031 135.106 184.386 135.106ZM213.796 134.594V100.162H223.332V109.89L221.988 107.074C223.012 104.642 224.654 102.807 226.916 101.57C229.177 100.29 231.929 99.6497 235.172 99.6497V108.866C234.745 108.823 234.361 108.802 234.02 108.802C233.678 108.759 233.316 108.738 232.932 108.738C230.201 108.738 227.982 109.527 226.276 111.106C224.612 112.642 223.78 115.052 223.78 118.338V134.594H213.796ZM259.978 134.594V127.874L259.338 126.402V114.37C259.338 112.236 258.677 110.572 257.354 109.378C256.074 108.183 254.09 107.586 251.402 107.586C249.567 107.586 247.754 107.884 245.962 108.482C244.213 109.036 242.719 109.804 241.482 110.786L237.898 103.81C239.775 102.487 242.037 101.463 244.682 100.738C247.327 100.012 250.015 99.6497 252.746 99.6497C257.994 99.6497 262.069 100.887 264.97 103.362C267.871 105.836 269.322 109.698 269.322 114.946V134.594H259.978ZM249.482 135.106C246.794 135.106 244.49 134.658 242.57 133.762C240.65 132.823 239.178 131.564 238.154 129.986C237.13 128.407 236.618 126.636 236.618 124.674C236.618 122.626 237.109 120.834 238.09 119.298C239.114 117.762 240.714 116.567 242.89 115.714C245.066 114.818 247.903 114.37 251.402 114.37H260.554V120.194H252.49C250.143 120.194 248.522 120.578 247.626 121.346C246.773 122.114 246.346 123.074 246.346 124.226C246.346 125.506 246.837 126.53 247.818 127.298C248.842 128.023 250.229 128.386 251.978 128.386C253.642 128.386 255.135 128.002 256.458 127.234C257.781 126.423 258.741 125.25 259.338 123.714L260.874 128.322C260.149 130.54 258.826 132.226 256.906 133.378C254.986 134.53 252.511 135.106 249.482 135.106ZM292.438 135.106C288.385 135.106 285.227 134.082 282.966 132.034C280.705 129.943 279.574 126.85 279.574 122.754V92.5457H289.558V122.626C289.558 124.076 289.942 125.207 290.71 126.018C291.478 126.786 292.523 127.17 293.846 127.17C295.425 127.17 296.769 126.743 297.878 125.89L300.566 132.93C299.542 133.655 298.305 134.21 296.854 134.594C295.446 134.935 293.974 135.106 292.438 135.106ZM274.262 108.61V100.93H298.134V108.61H274.262ZM322.196 135.106C318.271 135.106 314.815 134.338 311.828 132.802C308.884 131.266 306.601 129.175 304.98 126.53C303.359 123.842 302.548 120.791 302.548 117.378C302.548 113.922 303.337 110.871 304.916 108.226C306.537 105.538 308.735 103.447 311.508 101.954C314.281 100.418 317.417 99.6497 320.916 99.6497C324.287 99.6497 327.316 100.375 330.004 101.826C332.735 103.234 334.889 105.282 336.468 107.97C338.047 110.615 338.836 113.794 338.836 117.506C338.836 117.89 338.815 118.338 338.772 118.85C338.729 119.319 338.687 119.767 338.644 120.194H310.676V114.37H333.396L329.556 116.098C329.556 114.306 329.193 112.748 328.468 111.426C327.743 110.103 326.74 109.079 325.46 108.354C324.18 107.586 322.687 107.202 320.98 107.202C319.273 107.202 317.759 107.586 316.436 108.354C315.156 109.079 314.153 110.124 313.428 111.49C312.703 112.812 312.34 114.391 312.34 116.226V117.762C312.34 119.639 312.745 121.303 313.556 122.754C314.409 124.162 315.583 125.25 317.076 126.018C318.612 126.743 320.404 127.106 322.452 127.106C324.287 127.106 325.887 126.828 327.252 126.274C328.66 125.719 329.94 124.887 331.092 123.778L336.404 129.538C334.825 131.33 332.841 132.716 330.452 133.698C328.063 134.636 325.311 135.106 322.196 135.106ZM360.011 135.106C357.152 135.106 354.592 134.551 352.331 133.442C350.112 132.332 348.384 130.647 347.147 128.386C345.91 126.082 345.291 123.159 345.291 119.618V100.162H355.275V118.146C355.275 121.004 355.872 123.116 357.067 124.482C358.304 125.804 360.032 126.466 362.251 126.466C363.787 126.466 365.152 126.146 366.347 125.506C367.542 124.823 368.48 123.799 369.163 122.434C369.846 121.026 370.187 119.276 370.187 117.186V100.162H380.171V134.594H370.699V125.122L372.427 127.874C371.275 130.263 369.568 132.076 367.307 133.314C365.088 134.508 362.656 135.106 360.011 135.106ZM389.421 134.594V100.162H398.957V109.89L397.613 107.074C398.637 104.642 400.279 102.807 402.541 101.57C404.802 100.29 407.554 99.6497 410.797 99.6497V108.866C410.37 108.823 409.986 108.802 409.645 108.802C409.303 108.759 408.941 108.738 408.557 108.738C405.826 108.738 403.607 109.527 401.901 111.106C400.237 112.642 399.405 115.052 399.405 118.338V134.594H389.421ZM428.567 135.106C425.623 135.106 422.786 134.764 420.055 134.082C417.367 133.356 415.234 132.46 413.655 131.394L416.983 124.226C418.562 125.207 420.418 126.018 422.551 126.658C424.727 127.255 426.86 127.554 428.951 127.554C431.255 127.554 432.876 127.276 433.815 126.722C434.796 126.167 435.287 125.399 435.287 124.418C435.287 123.607 434.903 123.01 434.135 122.626C433.41 122.199 432.428 121.879 431.191 121.666C429.954 121.452 428.588 121.239 427.095 121.026C425.644 120.812 424.172 120.535 422.679 120.194C421.186 119.81 419.82 119.255 418.583 118.53C417.346 117.804 416.343 116.823 415.575 115.586C414.85 114.348 414.487 112.748 414.487 110.786C414.487 108.61 415.106 106.69 416.343 105.026C417.623 103.362 419.458 102.06 421.847 101.122C424.236 100.14 427.095 99.6497 430.423 99.6497C432.77 99.6497 435.159 99.9057 437.591 100.418C440.023 100.93 442.05 101.676 443.671 102.658L440.343 109.762C438.679 108.78 436.994 108.119 435.287 107.778C433.623 107.394 432.002 107.202 430.423 107.202C428.204 107.202 426.583 107.5 425.559 108.098C424.535 108.695 424.023 109.463 424.023 110.402C424.023 111.255 424.386 111.895 425.111 112.322C425.879 112.748 426.882 113.09 428.119 113.346C429.356 113.602 430.7 113.836 432.151 114.05C433.644 114.22 435.138 114.498 436.631 114.882C438.124 115.266 439.468 115.82 440.663 116.546C441.9 117.228 442.903 118.188 443.671 119.426C444.439 120.62 444.823 122.199 444.823 124.162C444.823 126.295 444.183 128.194 442.903 129.858C441.623 131.479 439.767 132.759 437.335 133.698C434.946 134.636 432.023 135.106 428.567 135.106ZM15.636 219.106C12.7773 219.106 10.2173 218.551 7.956 217.442C5.73733 216.332 4.00933 214.647 2.772 212.386C1.53467 210.082 0.916 207.159 0.916 203.618V184.162H10.9V202.146C10.9 205.004 11.4973 207.116 12.692 208.482C13.9293 209.804 15.6573 210.466 17.876 210.466C19.412 210.466 20.7773 210.146 21.972 209.506C23.1667 208.823 24.1053 207.799 24.788 206.434C25.4707 205.026 25.812 203.276 25.812 201.186V184.162H35.796V218.594H26.324V209.122L28.052 211.874C26.9 214.263 25.1933 216.076 22.932 217.314C20.7133 218.508 18.2813 219.106 15.636 219.106ZM59.1255 219.106C55.0722 219.106 51.9148 218.082 49.6535 216.034C47.3922 213.943 46.2615 210.85 46.2615 206.754V176.546H56.2455V206.626C56.2455 208.076 56.6295 209.207 57.3975 210.018C58.1655 210.786 59.2108 211.17 60.5335 211.17C62.1122 211.17 63.4562 210.743 64.5655 209.89L67.2535 216.93C66.2295 217.655 64.9922 218.21 63.5415 218.594C62.1335 218.935 60.6615 219.106 59.1255 219.106ZM40.9495 192.61V184.93H64.8215V192.61H40.9495ZM72.858 218.594V184.162H82.842V218.594H72.858ZM77.85 179.362C76.0153 179.362 74.522 178.828 73.37 177.762C72.218 176.695 71.642 175.372 71.642 173.794C71.642 172.215 72.218 170.892 73.37 169.826C74.522 168.759 76.0153 168.226 77.85 168.226C79.6847 168.226 81.178 168.738 82.33 169.762C83.482 170.743 84.058 172.023 84.058 173.602C84.058 175.266 83.482 176.652 82.33 177.762C81.2207 178.828 79.7273 179.362 77.85 179.362ZM92.108 218.594V171.106H102.092V218.594H92.108ZM111.358 218.594V184.162H121.342V218.594H111.358ZM116.35 179.362C114.515 179.362 113.022 178.828 111.87 177.762C110.718 176.695 110.142 175.372 110.142 173.794C110.142 172.215 110.718 170.892 111.87 169.826C113.022 168.759 114.515 168.226 116.35 168.226C118.185 168.226 119.678 168.738 120.83 169.762C121.982 170.743 122.558 172.023 122.558 173.602C122.558 175.266 121.982 176.652 120.83 177.762C119.721 178.828 118.227 179.362 116.35 179.362ZM142.192 219.106C139.248 219.106 136.411 218.764 133.68 218.082C130.992 217.356 128.859 216.46 127.28 215.394L130.608 208.226C132.187 209.207 134.043 210.018 136.176 210.658C138.352 211.255 140.485 211.554 142.576 211.554C144.88 211.554 146.501 211.276 147.44 210.722C148.421 210.167 148.912 209.399 148.912 208.418C148.912 207.607 148.528 207.01 147.76 206.626C147.035 206.199 146.053 205.879 144.816 205.666C143.579 205.452 142.213 205.239 140.72 205.026C139.269 204.812 137.797 204.535 136.304 204.194C134.811 203.81 133.445 203.255 132.208 202.53C130.971 201.804 129.968 200.823 129.2 199.586C128.475 198.348 128.112 196.748 128.112 194.786C128.112 192.61 128.731 190.69 129.968 189.026C131.248 187.362 133.083 186.06 135.472 185.122C137.861 184.14 140.72 183.65 144.048 183.65C146.395 183.65 148.784 183.906 151.216 184.418C153.648 184.93 155.675 185.676 157.296 186.658L153.968 193.762C152.304 192.78 150.619 192.119 148.912 191.778C147.248 191.394 145.627 191.202 144.048 191.202C141.829 191.202 140.208 191.5 139.184 192.098C138.16 192.695 137.648 193.463 137.648 194.402C137.648 195.255 138.011 195.895 138.736 196.322C139.504 196.748 140.507 197.09 141.744 197.346C142.981 197.602 144.325 197.836 145.776 198.05C147.269 198.22 148.763 198.498 150.256 198.882C151.749 199.266 153.093 199.82 154.288 200.546C155.525 201.228 156.528 202.188 157.296 203.426C158.064 204.62 158.448 206.199 158.448 208.162C158.448 210.295 157.808 212.194 156.528 213.858C155.248 215.479 153.392 216.759 150.96 217.698C148.571 218.636 145.648 219.106 142.192 219.106ZM181.696 219.106C177.771 219.106 174.315 218.338 171.328 216.802C168.384 215.266 166.101 213.175 164.48 210.53C162.859 207.842 162.048 204.791 162.048 201.378C162.048 197.922 162.837 194.871 164.416 192.226C166.037 189.538 168.235 187.447 171.008 185.954C173.781 184.418 176.917 183.65 180.416 183.65C183.787 183.65 186.816 184.375 189.504 185.826C192.235 187.234 194.389 189.282 195.968 191.97C197.547 194.615 198.336 197.794 198.336 201.506C198.336 201.89 198.315 202.338 198.272 202.85C198.229 203.319 198.187 203.767 198.144 204.194H170.176V198.37H192.896L189.056 200.098C189.056 198.306 188.693 196.748 187.968 195.426C187.243 194.103 186.24 193.079 184.96 192.354C183.68 191.586 182.187 191.202 180.48 191.202C178.773 191.202 177.259 191.586 175.936 192.354C174.656 193.079 173.653 194.124 172.928 195.49C172.203 196.812 171.84 198.391 171.84 200.226V201.762C171.84 203.639 172.245 205.303 173.056 206.754C173.909 208.162 175.083 209.25 176.576 210.018C178.112 210.743 179.904 211.106 181.952 211.106C183.787 211.106 185.387 210.828 186.752 210.274C188.16 209.719 189.44 208.887 190.592 207.778L195.904 213.538C194.325 215.33 192.341 216.716 189.952 217.698C187.563 218.636 184.811 219.106 181.696 219.106ZM225.911 183.65C228.642 183.65 231.074 184.204 233.207 185.314C235.383 186.38 237.09 188.044 238.327 190.306C239.564 192.524 240.183 195.383 240.183 198.882V218.594H230.199V200.418C230.199 197.644 229.58 195.596 228.343 194.274C227.148 192.951 225.442 192.29 223.223 192.29C221.644 192.29 220.215 192.631 218.935 193.314C217.698 193.954 216.716 194.956 215.991 196.322C215.308 197.687 214.967 199.436 214.967 201.57V218.594H204.983V184.162H214.519V193.698L212.727 190.818C213.964 188.514 215.735 186.743 218.039 185.506C220.343 184.268 222.967 183.65 225.911 183.65ZM263.313 219.106C259.26 219.106 256.102 218.082 253.841 216.034C251.58 213.943 250.449 210.85 250.449 206.754V176.546H260.433V206.626C260.433 208.076 260.817 209.207 261.585 210.018C262.353 210.786 263.398 211.17 264.721 211.17C266.3 211.17 267.644 210.743 268.753 209.89L271.441 216.93C270.417 217.655 269.18 218.21 267.729 218.594C266.321 218.935 264.849 219.106 263.313 219.106ZM245.137 192.61V184.93H269.009V192.61H245.137Z" fill="#34373E"/>
<path d="M2.31 302.594V253.594H23.52C27.9067 253.594 31.6867 254.317 34.86 255.764C38.0333 257.164 40.4833 259.194 42.21 261.854C43.9367 264.514 44.8 267.687 44.8 271.374C44.8 275.014 43.9367 278.164 42.21 280.824C40.4833 283.484 38.0333 285.537 34.86 286.984C31.6867 288.384 27.9067 289.084 23.52 289.084H8.61L13.65 283.974V302.594H2.31ZM13.65 285.234L8.61 279.844H22.89C26.39 279.844 29.0033 279.097 30.73 277.604C32.4567 276.11 33.32 274.034 33.32 271.374C33.32 268.667 32.4567 266.567 30.73 265.074C29.0033 263.58 26.39 262.834 22.89 262.834H8.61L13.65 257.444V285.234ZM74.8841 302.594V295.244L74.1841 293.634V280.474C74.1841 278.14 73.4608 276.32 72.0141 275.014C70.6141 273.707 68.4441 273.054 65.5041 273.054C63.4975 273.054 61.5141 273.38 59.5541 274.034C57.6408 274.64 56.0075 275.48 54.6541 276.554L50.7341 268.924C52.7875 267.477 55.2608 266.357 58.1541 265.564C61.0475 264.77 63.9875 264.374 66.9741 264.374C72.7141 264.374 77.1708 265.727 80.3441 268.434C83.5175 271.14 85.1041 275.364 85.1041 281.104V302.594H74.8841ZM63.4041 303.154C60.4641 303.154 57.9441 302.664 55.8441 301.684C53.7441 300.657 52.1341 299.28 51.0141 297.554C49.8941 295.827 49.3341 293.89 49.3341 291.744C49.3341 289.504 49.8708 287.544 50.9441 285.864C52.0641 284.184 53.8141 282.877 56.1941 281.944C58.5741 280.964 61.6775 280.474 65.5041 280.474H75.5141V286.844H66.6941C64.1275 286.844 62.3541 287.264 61.3741 288.104C60.4408 288.944 59.9741 289.994 59.9741 291.254C59.9741 292.654 60.5108 293.774 61.5841 294.614C62.7041 295.407 64.2208 295.804 66.1341 295.804C67.9541 295.804 69.5875 295.384 71.0341 294.544C72.4808 293.657 73.5308 292.374 74.1841 290.694L75.8641 295.734C75.0708 298.16 73.6241 300.004 71.5241 301.264C69.4241 302.524 66.7175 303.154 63.4041 303.154ZM99.0637 316.734C97.1037 316.734 95.167 316.43 93.2537 315.824C91.3403 315.217 89.777 314.377 88.5637 313.304L92.5537 305.534C93.3937 306.28 94.3503 306.864 95.4237 307.284C96.5437 307.704 97.6403 307.914 98.7137 307.914C100.254 307.914 101.467 307.54 102.354 306.794C103.287 306.094 104.127 304.904 104.874 303.224L106.834 298.604L107.674 297.414L121.184 264.934H131.684L114.674 304.904C113.46 307.937 112.06 310.317 110.474 312.044C108.934 313.77 107.207 314.984 105.294 315.684C103.427 316.384 101.35 316.734 99.0637 316.734ZM105.504 304.064L88.7037 264.934H99.9737L112.994 296.434L105.504 304.064ZM137.47 302.594V264.094C137.47 259.847 138.73 256.464 141.25 253.944C143.77 251.377 147.363 250.094 152.03 250.094C153.616 250.094 155.133 250.257 156.58 250.584C158.073 250.91 159.333 251.424 160.36 252.124L157.49 260.034C156.883 259.614 156.206 259.287 155.46 259.054C154.713 258.82 153.92 258.704 153.08 258.704C151.493 258.704 150.256 259.17 149.37 260.104C148.53 260.99 148.11 262.344 148.11 264.164V267.664L148.39 272.354V302.594H137.47ZM131.66 274.174V265.774H157.77V274.174H131.66ZM180.651 303.154C176.638 303.154 173.068 302.314 169.941 300.634C166.861 298.954 164.411 296.667 162.591 293.774C160.818 290.834 159.931 287.497 159.931 283.764C159.931 279.984 160.818 276.647 162.591 273.754C164.411 270.814 166.861 268.527 169.941 266.894C173.068 265.214 176.638 264.374 180.651 264.374C184.618 264.374 188.165 265.214 191.291 266.894C194.418 268.527 196.868 270.79 198.641 273.684C200.415 276.577 201.301 279.937 201.301 283.764C201.301 287.497 200.415 290.834 198.641 293.774C196.868 296.667 194.418 298.954 191.291 300.634C188.165 302.314 184.618 303.154 180.651 303.154ZM180.651 294.194C182.471 294.194 184.105 293.774 185.551 292.934C186.998 292.094 188.141 290.904 188.981 289.364C189.821 287.777 190.241 285.91 190.241 283.764C190.241 281.57 189.821 279.704 188.981 278.164C188.141 276.624 186.998 275.434 185.551 274.594C184.105 273.754 182.471 273.334 180.651 273.334C178.831 273.334 177.198 273.754 175.751 274.594C174.305 275.434 173.138 276.624 172.251 278.164C171.411 279.704 170.991 281.57 170.991 283.764C170.991 285.91 171.411 287.777 172.251 289.364C173.138 290.904 174.305 292.094 175.751 292.934C177.198 293.774 178.831 294.194 180.651 294.194ZM226.521 303.154C222.507 303.154 218.937 302.314 215.811 300.634C212.731 298.954 210.281 296.667 208.461 293.774C206.687 290.834 205.801 287.497 205.801 283.764C205.801 279.984 206.687 276.647 208.461 273.754C210.281 270.814 212.731 268.527 215.811 266.894C218.937 265.214 222.507 264.374 226.521 264.374C230.487 264.374 234.034 265.214 237.161 266.894C240.287 268.527 242.737 270.79 244.511 273.684C246.284 276.577 247.171 279.937 247.171 283.764C247.171 287.497 246.284 290.834 244.511 293.774C242.737 296.667 240.287 298.954 237.161 300.634C234.034 302.314 230.487 303.154 226.521 303.154ZM226.521 294.194C228.341 294.194 229.974 293.774 231.421 292.934C232.867 292.094 234.011 290.904 234.851 289.364C235.691 287.777 236.111 285.91 236.111 283.764C236.111 281.57 235.691 279.704 234.851 278.164C234.011 276.624 232.867 275.434 231.421 274.594C229.974 273.754 228.341 273.334 226.521 273.334C224.701 273.334 223.067 273.754 221.621 274.594C220.174 275.434 219.007 276.624 218.121 278.164C217.281 279.704 216.861 281.57 216.861 283.764C216.861 285.91 217.281 287.777 218.121 289.364C219.007 290.904 220.174 292.094 221.621 292.934C223.067 293.774 224.701 294.194 226.521 294.194ZM270.64 303.154C267.093 303.154 263.896 302.36 261.05 300.774C258.203 299.14 255.94 296.877 254.26 293.984C252.626 291.09 251.81 287.684 251.81 283.764C251.81 279.797 252.626 276.367 254.26 273.474C255.94 270.58 258.203 268.34 261.05 266.754C263.896 265.167 267.093 264.374 270.64 264.374C273.813 264.374 276.59 265.074 278.97 266.474C281.35 267.874 283.193 269.997 284.5 272.844C285.806 275.69 286.46 279.33 286.46 283.764C286.46 288.15 285.83 291.79 284.57 294.684C283.31 297.53 281.49 299.654 279.11 301.054C276.776 302.454 273.953 303.154 270.64 303.154ZM272.53 294.194C274.303 294.194 275.913 293.774 277.36 292.934C278.806 292.094 279.95 290.904 280.79 289.364C281.676 287.777 282.12 285.91 282.12 283.764C282.12 281.57 281.676 279.704 280.79 278.164C279.95 276.624 278.806 275.434 277.36 274.594C275.913 273.754 274.303 273.334 272.53 273.334C270.71 273.334 269.076 273.754 267.63 274.594C266.183 275.434 265.016 276.624 264.13 278.164C263.29 279.704 262.87 281.57 262.87 283.764C262.87 285.91 263.29 287.777 264.13 289.364C265.016 290.904 266.183 292.094 267.63 292.934C269.076 293.774 270.71 294.194 272.53 294.194ZM282.4 302.594V294.894L282.61 283.694L281.91 272.564V250.654H292.83V302.594H282.4Z" fill="#FF3C6E"/>
</svg>
