<svg width="793" height="144" viewBox="0 0 793 144" fill="none" xmlns="http://www.w3.org/2000/svg">
<path d="M1.648 45V5.8H10.72V37.608H30.376V45H1.648ZM49.6168 45.448C46.1821 45.448 43.1581 44.776 40.5448 43.432C37.9688 42.088 35.9715 40.2587 34.5528 37.944C33.1341 35.592 32.4248 32.9227 32.4248 29.936C32.4248 26.912 33.1155 24.2427 34.4968 21.928C35.9155 19.576 37.8381 17.7467 40.2648 16.44C42.6915 15.096 45.4355 14.424 48.4968 14.424C51.4461 14.424 54.0968 15.0587 56.4488 16.328C58.8381 17.56 60.7235 19.352 62.1048 21.704C63.4861 24.0187 64.1768 26.8 64.1768 30.048C64.1768 30.384 64.1581 30.776 64.1208 31.224C64.0835 31.6347 64.0461 32.0267 64.0088 32.4H39.5368V27.304H59.4168L56.0568 28.816C56.0568 27.248 55.7395 25.8853 55.1048 24.728C54.4701 23.5707 53.5928 22.6747 52.4728 22.04C51.3528 21.368 50.0461 21.032 48.5528 21.032C47.0595 21.032 45.7341 21.368 44.5768 22.04C43.4568 22.6747 42.5795 23.5893 41.9448 24.784C41.3101 25.9413 40.9928 27.3227 40.9928 28.928V30.272C40.9928 31.9147 41.3475 33.3707 42.0568 34.64C42.8035 35.872 43.8301 36.824 45.1368 37.496C46.4808 38.1307 48.0488 38.448 49.8408 38.448C51.4461 38.448 52.8461 38.2053 54.0408 37.72C55.2728 37.2347 56.3928 36.5067 57.4008 35.536L62.0488 40.576C60.6675 42.144 58.9315 43.3573 56.8408 44.216C54.7501 45.0373 52.3421 45.448 49.6168 45.448ZM80.1289 45.448C77.5529 45.448 75.0703 45.1493 72.6809 44.552C70.3289 43.9173 68.4623 43.1333 67.0809 42.2L69.9929 35.928C71.3743 36.7867 72.9983 37.496 74.8649 38.056C76.7689 38.5787 78.6356 38.84 80.4649 38.84C82.4809 38.84 83.8996 38.5973 84.7209 38.112C85.5796 37.6267 86.0089 36.9547 86.0089 36.096C86.0089 35.3867 85.6729 34.864 85.0009 34.528C84.3663 34.1547 83.5076 33.8747 82.4249 33.688C81.3423 33.5013 80.1476 33.3147 78.8409 33.128C77.5716 32.9413 76.2836 32.6987 74.9769 32.4C73.6703 32.064 72.4756 31.5787 71.3929 30.944C70.3103 30.3093 69.4329 29.4507 68.7609 28.368C68.1263 27.2853 67.8089 25.8853 67.8089 24.168C67.8089 22.264 68.3503 20.584 69.4329 19.128C70.5529 17.672 72.1583 16.5333 74.2489 15.712C76.3396 14.8533 78.8409 14.424 81.7529 14.424C83.8063 14.424 85.8969 14.648 88.0249 15.096C90.1529 15.544 91.9263 16.1973 93.3449 17.056L90.4329 23.272C88.9769 22.4133 87.5023 21.8347 86.0089 21.536C84.5529 21.2 83.1343 21.032 81.7529 21.032C79.8116 21.032 78.3929 21.2933 77.4969 21.816C76.6009 22.3387 76.1529 23.0107 76.1529 23.832C76.1529 24.5787 76.4703 25.1387 77.1049 25.512C77.7769 25.8853 78.6543 26.184 79.7369 26.408C80.8196 26.632 81.9956 26.8373 83.2649 27.024C84.5716 27.1733 85.8783 27.416 87.1849 27.752C88.4916 28.088 89.6676 28.5733 90.7129 29.208C91.7956 29.8053 92.6729 30.6453 93.3449 31.728C94.0169 32.7733 94.3529 34.1547 94.3529 35.872C94.3529 37.7387 93.7929 39.4 92.6729 40.856C91.5529 42.2747 89.9289 43.3947 87.8009 44.216C85.7103 45.0373 83.1529 45.448 80.1289 45.448ZM154.186 14.424C156.576 14.424 158.685 14.9093 160.514 15.88C162.381 16.8133 163.837 18.2693 164.882 20.248C165.965 22.1893 166.506 24.6907 166.506 27.752V45H157.77V29.096C157.77 26.6693 157.266 24.8773 156.258 23.72C155.25 22.5627 153.832 21.984 152.002 21.984C150.733 21.984 149.594 22.2827 148.586 22.88C147.578 23.44 146.794 24.2987 146.234 25.456C145.674 26.6133 145.394 28.088 145.394 29.88V45H136.658V29.096C136.658 26.6693 136.154 24.8773 135.146 23.72C134.176 22.5627 132.776 21.984 130.946 21.984C129.677 21.984 128.538 22.2827 127.53 22.88C126.522 23.44 125.738 24.2987 125.178 25.456C124.618 26.6133 124.338 28.088 124.338 29.88V45H115.602V14.872H123.946V23.104L122.378 20.696C123.424 18.6427 124.898 17.0933 126.802 16.048C128.744 14.9653 130.946 14.424 133.41 14.424C136.173 14.424 138.581 15.1333 140.634 16.552C142.725 17.9333 144.106 20.0613 144.778 22.936L141.698 22.096C142.706 19.744 144.312 17.8773 146.514 16.496C148.754 15.1147 151.312 14.424 154.186 14.424ZM189.507 45.448C186.073 45.448 183.049 44.776 180.435 43.432C177.859 42.088 175.862 40.2587 174.443 37.944C173.025 35.592 172.315 32.9227 172.315 29.936C172.315 26.912 173.006 24.2427 174.387 21.928C175.806 19.576 177.729 17.7467 180.155 16.44C182.582 15.096 185.326 14.424 188.387 14.424C191.337 14.424 193.987 15.0587 196.339 16.328C198.729 17.56 200.614 19.352 201.995 21.704C203.377 24.0187 204.067 26.8 204.067 30.048C204.067 30.384 204.049 30.776 204.011 31.224C203.974 31.6347 203.937 32.0267 203.899 32.4H179.427V27.304H199.307L195.947 28.816C195.947 27.248 195.63 25.8853 194.995 24.728C194.361 23.5707 193.483 22.6747 192.363 22.04C191.243 21.368 189.937 21.032 188.443 21.032C186.95 21.032 185.625 21.368 184.467 22.04C183.347 22.6747 182.47 23.5893 181.835 24.784C181.201 25.9413 180.883 27.3227 180.883 28.928V30.272C180.883 31.9147 181.238 33.3707 181.947 34.64C182.694 35.872 183.721 36.824 185.027 37.496C186.371 38.1307 187.939 38.448 189.731 38.448C191.337 38.448 192.737 38.2053 193.931 37.72C195.163 37.2347 196.283 36.5067 197.291 35.536L201.939 40.576C200.558 42.144 198.822 43.3573 196.731 44.216C194.641 45.0373 192.233 45.448 189.507 45.448ZM209.884 45V14.872H218.62V45H209.884ZM214.252 10.672C212.646 10.672 211.34 10.2053 210.332 9.272C209.324 8.33866 208.82 7.18133 208.82 5.8C208.82 4.41866 209.324 3.26133 210.332 2.328C211.34 1.39466 212.646 0.927997 214.252 0.927997C215.857 0.927997 217.164 1.376 218.172 2.272C219.18 3.13067 219.684 4.25067 219.684 5.632C219.684 7.088 219.18 8.30133 218.172 9.272C217.201 10.2053 215.894 10.672 214.252 10.672ZM226.727 45V3.448H235.463V45H226.727ZM243.571 45V3.448H252.307V45H243.571ZM275.367 45.448C271.932 45.448 268.908 44.776 266.295 43.432C263.719 42.088 261.721 40.2587 260.303 37.944C258.884 35.592 258.175 32.9227 258.175 29.936C258.175 26.912 258.865 24.2427 260.247 21.928C261.665 19.576 263.588 17.7467 266.015 16.44C268.441 15.096 271.185 14.424 274.247 14.424C277.196 14.424 279.847 15.0587 282.199 16.328C284.588 17.56 286.473 19.352 287.855 21.704C289.236 24.0187 289.927 26.8 289.927 30.048C289.927 30.384 289.908 30.776 289.871 31.224C289.833 31.6347 289.796 32.0267 289.759 32.4H265.287V27.304H285.167L281.807 28.816C281.807 27.248 281.489 25.8853 280.855 24.728C280.22 23.5707 279.343 22.6747 278.223 22.04C277.103 21.368 275.796 21.032 274.303 21.032C272.809 21.032 271.484 21.368 270.327 22.04C269.207 22.6747 268.329 23.5893 267.695 24.784C267.06 25.9413 266.743 27.3227 266.743 28.928V30.272C266.743 31.9147 267.097 33.3707 267.807 34.64C268.553 35.872 269.58 36.824 270.887 37.496C272.231 38.1307 273.799 38.448 275.591 38.448C277.196 38.448 278.596 38.2053 279.791 37.72C281.023 37.2347 282.143 36.5067 283.151 35.536L287.799 40.576C286.417 42.144 284.681 43.3573 282.591 44.216C280.5 45.0373 278.092 45.448 275.367 45.448ZM308.455 45.448C305.954 45.448 303.714 44.9627 301.735 43.992C299.794 43.0213 298.282 41.5467 297.199 39.568C296.116 37.552 295.575 34.9947 295.575 31.896V14.872H304.311V30.608C304.311 33.1093 304.834 34.9573 305.879 36.152C306.962 37.3093 308.474 37.888 310.415 37.888C311.759 37.888 312.954 37.608 313.999 37.048C315.044 36.4507 315.866 35.5547 316.463 34.36C317.06 33.128 317.359 31.5973 317.359 29.768V14.872H326.095V45H317.807V36.712L319.319 39.12C318.311 41.2107 316.818 42.7973 314.839 43.88C312.898 44.9253 310.77 45.448 308.455 45.448ZM334.188 45V14.872H342.532V23.384L341.356 20.92C342.252 18.792 343.69 17.1867 345.668 16.104C347.647 14.984 350.055 14.424 352.892 14.424V22.488C352.519 22.4507 352.183 22.432 351.884 22.432C351.586 22.3947 351.268 22.376 350.932 22.376C348.543 22.376 346.602 23.0667 345.108 24.448C343.652 25.792 342.924 27.9013 342.924 30.776V45H334.188ZM368.441 45.448C365.865 45.448 363.383 45.1493 360.993 44.552C358.641 43.9173 356.775 43.1333 355.393 42.2L358.305 35.928C359.687 36.7867 361.311 37.496 363.177 38.056C365.081 38.5787 366.948 38.84 368.777 38.84C370.793 38.84 372.212 38.5973 373.033 38.112C373.892 37.6267 374.321 36.9547 374.321 36.096C374.321 35.3867 373.985 34.864 373.313 34.528C372.679 34.1547 371.82 33.8747 370.737 33.688C369.655 33.5013 368.46 33.3147 367.153 33.128C365.884 32.9413 364.596 32.6987 363.289 32.4C361.983 32.064 360.788 31.5787 359.705 30.944C358.623 30.3093 357.745 29.4507 357.073 28.368C356.439 27.2853 356.121 25.8853 356.121 24.168C356.121 22.264 356.663 20.584 357.745 19.128C358.865 17.672 360.471 16.5333 362.561 15.712C364.652 14.8533 367.153 14.424 370.065 14.424C372.119 14.424 374.209 14.648 376.337 15.096C378.465 15.544 380.239 16.1973 381.657 17.056L378.745 23.272C377.289 22.4133 375.815 21.8347 374.321 21.536C372.865 21.2 371.447 21.032 370.065 21.032C368.124 21.032 366.705 21.2933 365.809 21.816C364.913 22.3387 364.465 23.0107 364.465 23.832C364.465 24.5787 364.783 25.1387 365.417 25.512C366.089 25.8853 366.967 26.184 368.049 26.408C369.132 26.632 370.308 26.8373 371.577 27.024C372.884 27.1733 374.191 27.416 375.497 27.752C376.804 28.088 377.98 28.5733 379.025 29.208C380.108 29.8053 380.985 30.6453 381.657 31.728C382.329 32.7733 382.665 34.1547 382.665 35.872C382.665 37.7387 382.105 39.4 380.985 40.856C379.865 42.2747 378.241 43.3947 376.113 44.216C374.023 45.0373 371.465 45.448 368.441 45.448ZM403.915 45V14.872H412.259V23.384L411.083 20.92C411.979 18.792 413.416 17.1867 415.395 16.104C417.373 14.984 419.781 14.424 422.619 14.424V22.488C422.245 22.4507 421.909 22.432 421.611 22.432C421.312 22.3947 420.995 22.376 420.659 22.376C418.269 22.376 416.328 23.0667 414.835 24.448C413.379 25.792 412.651 27.9013 412.651 30.776V45H403.915ZM442.547 45.448C439.112 45.448 436.088 44.776 433.475 43.432C430.899 42.088 428.901 40.2587 427.483 37.944C426.064 35.592 425.355 32.9227 425.355 29.936C425.355 26.912 426.045 24.2427 427.427 21.928C428.845 19.576 430.768 17.7467 433.195 16.44C435.621 15.096 438.365 14.424 441.427 14.424C444.376 14.424 447.027 15.0587 449.379 16.328C451.768 17.56 453.653 19.352 455.035 21.704C456.416 24.0187 457.107 26.8 457.107 30.048C457.107 30.384 457.088 30.776 457.051 31.224C457.013 31.6347 456.976 32.0267 456.939 32.4H432.467V27.304H452.346L448.987 28.816C448.987 27.248 448.669 25.8853 448.035 24.728C447.4 23.5707 446.523 22.6747 445.403 22.04C444.283 21.368 442.976 21.032 441.483 21.032C439.989 21.032 438.664 21.368 437.507 22.04C436.387 22.6747 435.509 23.5893 434.875 24.784C434.24 25.9413 433.923 27.3227 433.923 28.928V30.272C433.923 31.9147 434.277 33.3707 434.987 34.64C435.733 35.872 436.76 36.824 438.067 37.496C439.411 38.1307 440.979 38.448 442.771 38.448C444.376 38.448 445.776 38.2053 446.971 37.72C448.203 37.2347 449.323 36.5067 450.331 35.536L454.979 40.576C453.597 42.144 451.861 43.3573 449.771 44.216C447.68 45.0373 445.272 45.448 442.547 45.448ZM473.059 45.448C470.483 45.448 468 45.1493 465.611 44.552C463.259 43.9173 461.392 43.1333 460.011 42.2L462.923 35.928C464.304 36.7867 465.928 37.496 467.795 38.056C469.699 38.5787 471.565 38.84 473.395 38.84C475.411 38.84 476.829 38.5973 477.651 38.112C478.509 37.6267 478.939 36.9547 478.939 36.096C478.939 35.3867 478.603 34.864 477.931 34.528C477.296 34.1547 476.437 33.8747 475.355 33.688C474.272 33.5013 473.077 33.3147 471.771 33.128C470.501 32.9413 469.213 32.6987 467.907 32.4C466.6 32.064 465.405 31.5787 464.323 30.944C463.24 30.3093 462.363 29.4507 461.691 28.368C461.056 27.2853 460.739 25.8853 460.739 24.168C460.739 22.264 461.28 20.584 462.363 19.128C463.483 17.672 465.088 16.5333 467.179 15.712C469.269 14.8533 471.771 14.424 474.683 14.424C476.736 14.424 478.827 14.648 480.955 15.096C483.083 15.544 484.856 16.1973 486.275 17.056L483.363 23.272C481.907 22.4133 480.432 21.8347 478.939 21.536C477.483 21.2 476.064 21.032 474.683 21.032C472.741 21.032 471.323 21.2933 470.427 21.816C469.531 22.3387 469.083 23.0107 469.083 23.832C469.083 24.5787 469.4 25.1387 470.035 25.512C470.707 25.8853 471.584 26.184 472.667 26.408C473.749 26.632 474.925 26.8373 476.195 27.024C477.501 27.1733 478.808 27.416 480.115 27.752C481.421 28.088 482.597 28.5733 483.643 29.208C484.725 29.8053 485.603 30.6453 486.275 31.728C486.947 32.7733 487.283 34.1547 487.283 35.872C487.283 37.7387 486.723 39.4 485.603 40.856C484.483 42.2747 482.859 43.3947 480.731 44.216C478.64 45.0373 476.083 45.448 473.059 45.448ZM504.993 45.448C501.446 45.448 498.683 44.552 496.705 42.76C494.726 40.9307 493.737 38.224 493.737 34.64V8.208H502.473V34.528C502.473 35.7973 502.809 36.7867 503.481 37.496C504.153 38.168 505.067 38.504 506.225 38.504C507.606 38.504 508.782 38.1307 509.753 37.384L512.105 43.544C511.209 44.1787 510.126 44.664 508.857 45C507.625 45.2987 506.337 45.448 504.993 45.448ZM489.089 22.264V15.544H509.977V22.264H489.089ZM535.489 45V39.12L534.929 37.832V27.304C534.929 25.4373 534.35 23.9813 533.193 22.936C532.073 21.8907 530.337 21.368 527.985 21.368C526.379 21.368 524.793 21.6293 523.225 22.152C521.694 22.6373 520.387 23.3093 519.305 24.168L516.169 18.064C517.811 16.9067 519.79 16.0107 522.105 15.376C524.419 14.7413 526.771 14.424 529.161 14.424C533.753 14.424 537.318 15.5067 539.857 17.672C542.395 19.8373 543.665 23.216 543.665 27.808V45H535.489ZM526.305 45.448C523.953 45.448 521.937 45.056 520.257 44.272C518.577 43.4507 517.289 42.3493 516.393 40.968C515.497 39.5867 515.049 38.0373 515.049 36.32C515.049 34.528 515.478 32.96 516.337 31.616C517.233 30.272 518.633 29.2267 520.537 28.48C522.441 27.696 524.923 27.304 527.985 27.304H535.993V32.4H528.937C526.883 32.4 525.465 32.736 524.681 33.408C523.934 34.08 523.561 34.92 523.561 35.928C523.561 37.048 523.99 37.944 524.849 38.616C525.745 39.2507 526.958 39.568 528.489 39.568C529.945 39.568 531.251 39.232 532.409 38.56C533.566 37.8507 534.406 36.824 534.929 35.48L536.273 39.512C535.638 41.4533 534.481 42.928 532.801 43.936C531.121 44.944 528.955 45.448 526.305 45.448ZM564.283 45.448C561.782 45.448 559.542 44.9627 557.563 43.992C555.622 43.0213 554.11 41.5467 553.027 39.568C551.944 37.552 551.403 34.9947 551.403 31.896V14.872H560.139V30.608C560.139 33.1093 560.662 34.9573 561.707 36.152C562.79 37.3093 564.302 37.888 566.243 37.888C567.587 37.888 568.782 37.608 569.827 37.048C570.872 36.4507 571.694 35.5547 572.291 34.36C572.888 33.128 573.187 31.5973 573.187 29.768V14.872H581.923V45H573.635V36.712L575.147 39.12C574.139 41.2107 572.646 42.7973 570.667 43.88C568.726 44.9253 566.598 45.448 564.283 45.448ZM590.016 45V14.872H598.36V23.384L597.184 20.92C598.08 18.792 599.518 17.1867 601.496 16.104C603.475 14.984 605.883 14.424 608.72 14.424V22.488C608.347 22.4507 608.011 22.432 607.712 22.432C607.414 22.3947 607.096 22.376 606.76 22.376C604.371 22.376 602.43 23.0667 600.936 24.448C599.48 25.792 598.752 27.9013 598.752 30.776V45H590.016ZM630.426 45V39.12L629.866 37.832V27.304C629.866 25.4373 629.287 23.9813 628.13 22.936C627.01 21.8907 625.274 21.368 622.922 21.368C621.317 21.368 619.73 21.6293 618.162 22.152C616.631 22.6373 615.325 23.3093 614.242 24.168L611.106 18.064C612.749 16.9067 614.727 16.0107 617.042 15.376C619.357 14.7413 621.709 14.424 624.098 14.424C628.69 14.424 632.255 15.5067 634.794 17.672C637.333 19.8373 638.602 23.216 638.602 27.808V45H630.426ZM621.242 45.448C618.89 45.448 616.874 45.056 615.194 44.272C613.514 43.4507 612.226 42.3493 611.33 40.968C610.434 39.5867 609.986 38.0373 609.986 36.32C609.986 34.528 610.415 32.96 611.274 31.616C612.17 30.272 613.57 29.2267 615.474 28.48C617.378 27.696 619.861 27.304 622.922 27.304H630.93V32.4H623.874C621.821 32.4 620.402 32.736 619.618 33.408C618.871 34.08 618.498 34.92 618.498 35.928C618.498 37.048 618.927 37.944 619.786 38.616C620.682 39.2507 621.895 39.568 623.426 39.568C624.882 39.568 626.189 39.232 627.346 38.56C628.503 37.8507 629.343 36.824 629.866 35.48L631.21 39.512C630.575 41.4533 629.418 42.928 627.738 43.936C626.058 44.944 623.893 45.448 621.242 45.448ZM658.829 45.448C655.282 45.448 652.519 44.552 650.541 42.76C648.562 40.9307 647.573 38.224 647.573 34.64V8.208H656.309V34.528C656.309 35.7973 656.645 36.7867 657.317 37.496C657.989 38.168 658.903 38.504 660.061 38.504C661.442 38.504 662.618 38.1307 663.589 37.384L665.941 43.544C665.045 44.1787 663.962 44.664 662.693 45C661.461 45.2987 660.173 45.448 658.829 45.448ZM642.925 22.264V15.544H663.813V22.264H642.925ZM684.867 45.448C681.432 45.448 678.408 44.776 675.795 43.432C673.219 42.088 671.221 40.2587 669.803 37.944C668.384 35.592 667.675 32.9227 667.675 29.936C667.675 26.912 668.365 24.2427 669.747 21.928C671.165 19.576 673.088 17.7467 675.515 16.44C677.941 15.096 680.685 14.424 683.747 14.424C686.696 14.424 689.347 15.0587 691.699 16.328C694.088 17.56 695.973 19.352 697.355 21.704C698.736 24.0187 699.427 26.8 699.427 30.048C699.427 30.384 699.408 30.776 699.371 31.224C699.333 31.6347 699.296 32.0267 699.259 32.4H674.787V27.304H694.667L691.307 28.816C691.307 27.248 690.989 25.8853 690.355 24.728C689.72 23.5707 688.843 22.6747 687.723 22.04C686.603 21.368 685.296 21.032 683.803 21.032C682.309 21.032 680.984 21.368 679.827 22.04C678.707 22.6747 677.829 23.5893 677.195 24.784C676.56 25.9413 676.243 27.3227 676.243 28.928V30.272C676.243 31.9147 676.597 33.3707 677.307 34.64C678.053 35.872 679.08 36.824 680.387 37.496C681.731 38.1307 683.299 38.448 685.091 38.448C686.696 38.448 688.096 38.2053 689.291 37.72C690.523 37.2347 691.643 36.5067 692.651 35.536L697.299 40.576C695.917 42.144 694.181 43.3573 692.091 44.216C690 45.0373 687.592 45.448 684.867 45.448ZM717.955 45.448C715.454 45.448 713.214 44.9627 711.235 43.992C709.294 43.0213 707.782 41.5467 706.699 39.568C705.616 37.552 705.075 34.9947 705.075 31.896V14.872H713.811V30.608C713.811 33.1093 714.334 34.9573 715.379 36.152C716.462 37.3093 717.974 37.888 719.915 37.888C721.259 37.888 722.454 37.608 723.499 37.048C724.544 36.4507 725.366 35.5547 725.963 34.36C726.56 33.128 726.859 31.5973 726.859 29.768V14.872H735.595V45H727.307V36.712L728.819 39.12C727.811 41.2107 726.318 42.7973 724.339 43.88C722.398 44.9253 720.27 45.448 717.955 45.448ZM743.688 45V14.872H752.032V23.384L750.856 20.92C751.752 18.792 753.19 17.1867 755.168 16.104C757.147 14.984 759.555 14.424 762.392 14.424V22.488C762.019 22.4507 761.683 22.432 761.384 22.432C761.086 22.3947 760.768 22.376 760.432 22.376C758.043 22.376 756.102 23.0667 754.608 24.448C753.152 25.792 752.424 27.9013 752.424 30.776V45H743.688ZM777.941 45.448C775.365 45.448 772.883 45.1493 770.493 44.552C768.141 43.9173 766.275 43.1333 764.893 42.2L767.805 35.928C769.187 36.7867 770.811 37.496 772.677 38.056C774.581 38.5787 776.448 38.84 778.277 38.84C780.293 38.84 781.712 38.5973 782.533 38.112C783.392 37.6267 783.821 36.9547 783.821 36.096C783.821 35.3867 783.485 34.864 782.813 34.528C782.179 34.1547 781.32 33.8747 780.237 33.688C779.155 33.5013 777.96 33.3147 776.653 33.128C775.384 32.9413 774.096 32.6987 772.789 32.4C771.483 32.064 770.288 31.5787 769.205 30.944C768.123 30.3093 767.245 29.4507 766.573 28.368C765.939 27.2853 765.621 25.8853 765.621 24.168C765.621 22.264 766.163 20.584 767.245 19.128C768.365 17.672 769.971 16.5333 772.061 15.712C774.152 14.8533 776.653 14.424 779.565 14.424C781.619 14.424 783.709 14.648 785.837 15.096C787.965 15.544 789.739 16.1973 791.157 17.056L788.245 23.272C786.789 22.4133 785.315 21.8347 783.821 21.536C782.365 21.2 780.947 21.032 779.565 21.032C777.624 21.032 776.205 21.2933 775.309 21.816C774.413 22.3387 773.965 23.0107 773.965 23.832C773.965 24.5787 774.283 25.1387 774.917 25.512C775.589 25.8853 776.467 26.184 777.549 26.408C778.632 26.632 779.808 26.8373 781.077 27.024C782.384 27.1733 783.691 27.416 784.997 27.752C786.304 28.088 787.48 28.5733 788.525 29.208C789.608 29.8053 790.485 30.6453 791.157 31.728C791.829 32.7733 792.165 34.1547 792.165 35.872C792.165 37.7387 791.605 39.4 790.485 40.856C789.365 42.2747 787.741 43.3947 785.613 44.216C783.523 45.0373 780.965 45.448 777.941 45.448ZM13.744 129.448C11.2427 129.448 9.00267 128.963 7.024 127.992C5.08267 127.021 3.57067 125.547 2.488 123.568C1.40533 121.552 0.864 118.995 0.864 115.896V98.872H9.6V114.608C9.6 117.109 10.1227 118.957 11.168 120.152C12.2507 121.309 13.7627 121.888 15.704 121.888C17.048 121.888 18.2427 121.608 19.288 121.048C20.3333 120.451 21.1547 119.555 21.752 118.36C22.3493 117.128 22.648 115.597 22.648 113.768V98.872H31.384V129H23.096V120.712L24.608 123.12C23.6 125.211 22.1067 126.797 20.128 127.88C18.1867 128.925 16.0587 129.448 13.744 129.448ZM51.7973 129.448C48.2506 129.448 45.488 128.552 43.5093 126.76C41.5306 124.931 40.5413 122.224 40.5413 118.64V92.208H49.2773V118.528C49.2773 119.797 49.6133 120.787 50.2853 121.496C50.9573 122.168 51.872 122.504 53.0293 122.504C54.4106 122.504 55.5866 122.131 56.5573 121.384L58.9093 127.544C58.0133 128.179 56.9306 128.664 55.6613 129C54.4293 129.299 53.1413 129.448 51.7973 129.448ZM35.8933 106.264V99.544H56.7813V106.264H35.8933ZM63.8133 129V98.872H72.5493V129H63.8133ZM68.1813 94.672C66.5759 94.672 65.2693 94.2053 64.2613 93.272C63.2533 92.3387 62.7493 91.1813 62.7493 89.8C62.7493 88.4187 63.2533 87.2613 64.2613 86.328C65.2693 85.3947 66.5759 84.928 68.1813 84.928C69.7866 84.928 71.0933 85.376 72.1013 86.272C73.1093 87.1307 73.6133 88.2507 73.6133 89.632C73.6133 91.088 73.1093 92.3013 72.1013 93.272C71.1306 94.2053 69.8239 94.672 68.1813 94.672ZM80.657 129V87.448H89.393V129H80.657ZM97.5008 129V98.872H106.237V129H97.5008ZM101.869 94.672C100.263 94.672 98.9568 94.2053 97.9488 93.272C96.9408 92.3387 96.4368 91.1813 96.4368 89.8C96.4368 88.4187 96.9408 87.2613 97.9488 86.328C98.9568 85.3947 100.263 84.928 101.869 84.928C103.474 84.928 104.781 85.376 105.789 86.272C106.797 87.1307 107.301 88.2507 107.301 89.632C107.301 91.088 106.797 92.3013 105.789 93.272C104.818 94.2053 103.511 94.672 101.869 94.672ZM124.481 129.448C121.905 129.448 119.422 129.149 117.033 128.552C114.681 127.917 112.814 127.133 111.433 126.2L114.345 119.928C115.726 120.787 117.35 121.496 119.217 122.056C121.121 122.579 122.987 122.84 124.817 122.84C126.833 122.84 128.251 122.597 129.073 122.112C129.931 121.627 130.361 120.955 130.361 120.096C130.361 119.387 130.025 118.864 129.353 118.528C128.718 118.155 127.859 117.875 126.776 117.688C125.694 117.501 124.499 117.315 123.193 117.128C121.923 116.941 120.635 116.699 119.329 116.4C118.022 116.064 116.827 115.579 115.745 114.944C114.662 114.309 113.785 113.451 113.113 112.368C112.478 111.285 112.16 109.885 112.16 108.168C112.16 106.264 112.702 104.584 113.785 103.128C114.905 101.672 116.51 100.533 118.601 99.712C120.691 98.8533 123.193 98.424 126.105 98.424C128.158 98.424 130.249 98.648 132.377 99.096C134.505 99.544 136.278 100.197 137.697 101.056L134.785 107.272C133.329 106.413 131.854 105.835 130.361 105.536C128.905 105.2 127.486 105.032 126.105 105.032C124.163 105.032 122.745 105.293 121.849 105.816C120.953 106.339 120.505 107.011 120.505 107.832C120.505 108.579 120.822 109.139 121.457 109.512C122.129 109.885 123.006 110.184 124.089 110.408C125.171 110.632 126.347 110.837 127.617 111.024C128.923 111.173 130.23 111.416 131.537 111.752C132.843 112.088 134.019 112.573 135.065 113.208C136.147 113.805 137.025 114.645 137.697 115.728C138.369 116.773 138.705 118.155 138.705 119.872C138.705 121.739 138.145 123.4 137.025 124.856C135.905 126.275 134.281 127.395 132.153 128.216C130.062 129.037 127.505 129.448 124.481 129.448ZM159.047 129.448C155.612 129.448 152.588 128.776 149.975 127.432C147.399 126.088 145.401 124.259 143.983 121.944C142.564 119.592 141.855 116.923 141.855 113.936C141.855 110.912 142.545 108.243 143.927 105.928C145.345 103.576 147.268 101.747 149.695 100.44C152.121 99.096 154.865 98.424 157.927 98.424C160.876 98.424 163.527 99.0587 165.879 100.328C168.268 101.56 170.153 103.352 171.535 105.704C172.916 108.019 173.607 110.8 173.607 114.048C173.607 114.384 173.588 114.776 173.551 115.224C173.513 115.635 173.476 116.027 173.439 116.4H148.967V111.304H168.846L165.487 112.816C165.487 111.248 165.169 109.885 164.535 108.728C163.9 107.571 163.023 106.675 161.903 106.04C160.783 105.368 159.476 105.032 157.983 105.032C156.489 105.032 155.164 105.368 154.007 106.04C152.887 106.675 152.009 107.589 151.375 108.784C150.74 109.941 150.423 111.323 150.423 112.928V114.272C150.423 115.915 150.777 117.371 151.487 118.64C152.233 119.872 153.26 120.824 154.567 121.496C155.911 122.131 157.479 122.448 159.271 122.448C160.876 122.448 162.276 122.205 163.471 121.72C164.703 121.235 165.823 120.507 166.831 119.536L171.479 124.576C170.097 126.144 168.361 127.357 166.271 128.216C164.18 129.037 161.772 129.448 159.047 129.448ZM197.735 98.424C200.124 98.424 202.252 98.9093 204.119 99.88C206.023 100.813 207.516 102.269 208.599 104.248C209.681 106.189 210.223 108.691 210.223 111.752V129H201.487V113.096C201.487 110.669 200.945 108.877 199.863 107.72C198.817 106.563 197.324 105.984 195.383 105.984C194.001 105.984 192.751 106.283 191.631 106.88C190.548 107.44 189.689 108.317 189.055 109.512C188.457 110.707 188.159 112.237 188.159 114.104V129H179.423V98.872H187.767V107.216L186.199 104.696C187.281 102.68 188.831 101.131 190.847 100.048C192.863 98.9653 195.159 98.424 197.735 98.424ZM230.461 129.448C226.915 129.448 224.152 128.552 222.173 126.76C220.195 124.931 219.205 122.224 219.205 118.64V92.208H227.941V118.528C227.941 119.797 228.277 120.787 228.949 121.496C229.621 122.168 230.536 122.504 231.693 122.504C233.075 122.504 234.251 122.131 235.221 121.384L237.573 127.544C236.677 128.179 235.595 128.664 234.325 129C233.093 129.299 231.805 129.448 230.461 129.448ZM214.557 106.264V99.544H235.445V106.264H214.557Z" fill="#34373E"/>
<path d="M260.115 129V80H281.325C285.711 80 289.491 80.7233 292.665 82.17C295.838 83.57 298.288 85.6 300.015 88.26C301.741 90.92 302.605 94.0933 302.605 97.78C302.605 101.42 301.741 104.57 300.015 107.23C298.288 109.89 295.838 111.943 292.665 113.39C289.491 114.79 285.711 115.49 281.325 115.49H266.415L271.455 110.38V129H260.115ZM271.455 111.64L266.415 106.25H280.695C284.195 106.25 286.808 105.503 288.535 104.01C290.261 102.517 291.125 100.44 291.125 97.78C291.125 95.0733 290.261 92.9733 288.535 91.48C286.808 89.9867 284.195 89.24 280.695 89.24H266.415L271.455 83.85V111.64ZM332.689 129V121.65L331.989 120.04V106.88C331.989 104.547 331.265 102.727 329.819 101.42C328.419 100.113 326.249 99.46 323.309 99.46C321.302 99.46 319.319 99.7867 317.359 100.44C315.445 101.047 313.812 101.887 312.459 102.96L308.539 95.33C310.592 93.8833 313.065 92.7633 315.959 91.97C318.852 91.1767 321.792 90.78 324.779 90.78C330.519 90.78 334.975 92.1333 338.149 94.84C341.322 97.5467 342.909 101.77 342.909 107.51V129H332.689ZM321.209 129.56C318.269 129.56 315.749 129.07 313.649 128.09C311.549 127.063 309.939 125.687 308.819 123.96C307.699 122.233 307.139 120.297 307.139 118.15C307.139 115.91 307.675 113.95 308.749 112.27C309.869 110.59 311.619 109.283 313.999 108.35C316.379 107.37 319.482 106.88 323.309 106.88H333.319V113.25H324.499C321.932 113.25 320.159 113.67 319.179 114.51C318.245 115.35 317.779 116.4 317.779 117.66C317.779 119.06 318.315 120.18 319.389 121.02C320.509 121.813 322.025 122.21 323.939 122.21C325.759 122.21 327.392 121.79 328.839 120.95C330.285 120.063 331.335 118.78 331.989 117.1L333.669 122.14C332.875 124.567 331.429 126.41 329.329 127.67C327.229 128.93 324.522 129.56 321.209 129.56ZM356.868 143.14C354.908 143.14 352.972 142.837 351.058 142.23C349.145 141.623 347.582 140.783 346.368 139.71L350.358 131.94C351.198 132.687 352.155 133.27 353.228 133.69C354.348 134.11 355.445 134.32 356.518 134.32C358.058 134.32 359.272 133.947 360.158 133.2C361.092 132.5 361.932 131.31 362.678 129.63L364.638 125.01L365.478 123.82L378.988 91.34H389.488L372.478 131.31C371.265 134.343 369.865 136.723 368.278 138.45C366.738 140.177 365.012 141.39 363.098 142.09C361.232 142.79 359.155 143.14 356.868 143.14ZM363.308 130.47L346.508 91.34H357.778L370.798 122.84L363.308 130.47ZM395.274 129V90.5C395.274 86.2533 396.534 82.87 399.054 80.35C401.574 77.7833 405.168 76.5 409.834 76.5C411.421 76.5 412.938 76.6633 414.384 76.99C415.878 77.3167 417.138 77.83 418.164 78.53L415.294 86.44C414.688 86.02 414.011 85.6933 413.264 85.46C412.518 85.2267 411.724 85.11 410.884 85.11C409.298 85.11 408.061 85.5767 407.174 86.51C406.334 87.3967 405.914 88.75 405.914 90.57V94.07L406.194 98.76V129H395.274ZM389.464 100.58V92.18H415.574V100.58H389.464ZM438.456 129.56C434.443 129.56 430.873 128.72 427.746 127.04C424.666 125.36 422.216 123.073 420.396 120.18C418.623 117.24 417.736 113.903 417.736 110.17C417.736 106.39 418.623 103.053 420.396 100.16C422.216 97.22 424.666 94.9333 427.746 93.3C430.873 91.62 434.443 90.78 438.456 90.78C442.423 90.78 445.969 91.62 449.096 93.3C452.223 94.9333 454.673 97.1967 456.446 100.09C458.219 102.983 459.106 106.343 459.106 110.17C459.106 113.903 458.219 117.24 456.446 120.18C454.673 123.073 452.223 125.36 449.096 127.04C445.969 128.72 442.423 129.56 438.456 129.56ZM438.456 120.6C440.276 120.6 441.909 120.18 443.356 119.34C444.803 118.5 445.946 117.31 446.786 115.77C447.626 114.183 448.046 112.317 448.046 110.17C448.046 107.977 447.626 106.11 446.786 104.57C445.946 103.03 444.803 101.84 443.356 101C441.909 100.16 440.276 99.74 438.456 99.74C436.636 99.74 435.003 100.16 433.556 101C432.109 101.84 430.943 103.03 430.056 104.57C429.216 106.11 428.796 107.977 428.796 110.17C428.796 112.317 429.216 114.183 430.056 115.77C430.943 117.31 432.109 118.5 433.556 119.34C435.003 120.18 436.636 120.6 438.456 120.6ZM484.325 129.56C480.312 129.56 476.742 128.72 473.615 127.04C470.535 125.36 468.085 123.073 466.265 120.18C464.492 117.24 463.605 113.903 463.605 110.17C463.605 106.39 464.492 103.053 466.265 100.16C468.085 97.22 470.535 94.9333 473.615 93.3C476.742 91.62 480.312 90.78 484.325 90.78C488.292 90.78 491.839 91.62 494.965 93.3C498.092 94.9333 500.542 97.1967 502.315 100.09C504.089 102.983 504.975 106.343 504.975 110.17C504.975 113.903 504.089 117.24 502.315 120.18C500.542 123.073 498.092 125.36 494.965 127.04C491.839 128.72 488.292 129.56 484.325 129.56ZM484.325 120.6C486.145 120.6 487.779 120.18 489.225 119.34C490.672 118.5 491.815 117.31 492.655 115.77C493.495 114.183 493.915 112.317 493.915 110.17C493.915 107.977 493.495 106.11 492.655 104.57C491.815 103.03 490.672 101.84 489.225 101C487.779 100.16 486.145 99.74 484.325 99.74C482.505 99.74 480.872 100.16 479.425 101C477.979 101.84 476.812 103.03 475.925 104.57C475.085 106.11 474.665 107.977 474.665 110.17C474.665 112.317 475.085 114.183 475.925 115.77C476.812 117.31 477.979 118.5 479.425 119.34C480.872 120.18 482.505 120.6 484.325 120.6ZM528.444 129.56C524.898 129.56 521.701 128.767 518.854 127.18C516.008 125.547 513.744 123.283 512.064 120.39C510.431 117.497 509.614 114.09 509.614 110.17C509.614 106.203 510.431 102.773 512.064 99.88C513.744 96.9867 516.008 94.7467 518.854 93.16C521.701 91.5733 524.898 90.78 528.444 90.78C531.618 90.78 534.394 91.48 536.774 92.88C539.154 94.28 540.998 96.4033 542.304 99.25C543.611 102.097 544.264 105.737 544.264 110.17C544.264 114.557 543.634 118.197 542.374 121.09C541.114 123.937 539.294 126.06 536.914 127.46C534.581 128.86 531.758 129.56 528.444 129.56ZM530.334 120.6C532.108 120.6 533.718 120.18 535.164 119.34C536.611 118.5 537.754 117.31 538.594 115.77C539.481 114.183 539.924 112.317 539.924 110.17C539.924 107.977 539.481 106.11 538.594 104.57C537.754 103.03 536.611 101.84 535.164 101C533.718 100.16 532.108 99.74 530.334 99.74C528.514 99.74 526.881 100.16 525.434 101C523.988 101.84 522.821 103.03 521.934 104.57C521.094 106.11 520.674 107.977 520.674 110.17C520.674 112.317 521.094 114.183 521.934 115.77C522.821 117.31 523.988 118.5 525.434 119.34C526.881 120.18 528.514 120.6 530.334 120.6ZM540.204 129V121.3L540.414 110.1L539.714 98.97V77.06H550.634V129H540.204Z" fill="#E71C6B"/>
</svg>
